<svg xmlns="http://www.w3.org/2000/svg" xmlns:xlink="http://www.w3.org/1999/xlink" viewBox="0 0 415.25 95.29"><defs><style>.cls-1{fill:url(#linear-gradient);}.cls-2{fill:#fff;}.cls-3{fill:url(#linear-gradient-2);}.cls-4{fill:url(#linear-gradient-3);}</style><linearGradient id="linear-gradient" x1="-1118.77" y1="217.94" x2="-1118.77" y2="196.68" gradientTransform="translate(1266.52 -195.68)" gradientUnits="userSpaceOnUse"><stop offset="0" stop-color="#1bcc62"/><stop offset="1" stop-color="#7df9af"/></linearGradient><linearGradient id="linear-gradient-2" x1="-938.55" y1="289.97" x2="-938.55" y2="268.71" gradientTransform="translate(1266.52 -195.68)" gradientUnits="userSpaceOnUse"><stop offset="0" stop-color="#ed2f54"/><stop offset="1" stop-color="#ff6187"/></linearGradient><linearGradient id="linear-gradient-3" x1="-1254.89" y1="289.97" x2="-1254.89" y2="268.71" gradientTransform="translate(1266.52 -195.68)" gradientUnits="userSpaceOnUse"><stop offset="0" stop-color="#2f53ea"/><stop offset="1" stop-color="#2fd2f6"/></linearGradient></defs><g id="Layer_2" data-name="Layer 2"><g id="Layer_1-2" data-name="Layer 1"><path d="M19.07,37.28H35.65a6.4,6.4,0,0,1,6.4,6.4h0a6.4,6.4,0,0,1-6.4,6.4H19.07v33.1a7.23,7.23,0,0,1-7.23,7.22h0a7.22,7.22,0,0,1-7.22-7.22V13.57a8.49,8.49,0,0,1,8.49-8.49h37a6.39,6.39,0,0,1,6.4,6.4V12a6.4,6.4,0,0,1-6.4,6.4h-31Z"/><path d="M81.34,5.08h1.1a6.67,6.67,0,0,1,6.67,6.67v65.3H120a6.68,6.68,0,0,1,6.67,6.68h0A6.67,6.67,0,0,1,120,90.4H83.15a8.49,8.49,0,0,1-8.49-8.49V11.75A6.68,6.68,0,0,1,81.34,5.08Z"/><path d="M180.73,91.5C155,91.32,140.3,75.11,140.3,49V12.3a7.23,7.23,0,0,1,7.23-7.22h0a7.22,7.22,0,0,1,7.22,7.22V49c0,18.16,9.36,28.9,26.43,28.9s26.42-10.6,26.42-28.76V12.44a7.22,7.22,0,0,1,7.22-7.22h.28a7.22,7.22,0,0,1,7.22,7.22V49.62C222.32,72.64,203.75,91.67,180.73,91.5Z"/><path d="M320.58,40.17c0-5.23.13-9.91.13-9.91L291,59.16,260.71,30s.14,4.81.14,10.73V83.18a7.23,7.23,0,0,1-7.23,7.22h0a7.22,7.22,0,0,1-7.22-7.22V10.37a5.29,5.29,0,0,1,5.29-5.29h0a5.28,5.28,0,0,1,3.68,1.49l26.95,26,8.25,8.26s3.31-3.17,8.54-8.26L326,6.39a5.27,5.27,0,0,1,3.89-1.5h.07A5.29,5.29,0,0,1,335,10.18v73a7.22,7.22,0,0,1-7.22,7.22h0a7.22,7.22,0,0,1-7.22-7.22Z"/><path d="M369.24,5.08h36.31a6.4,6.4,0,0,1,6.4,6.4V12a6.41,6.41,0,0,1-6.4,6.4H375.2V36.87h17.41a6.39,6.39,0,0,1,6.4,6.4h0a6.4,6.4,0,0,1-6.4,6.4H375.2V77.05h33.65a6.4,6.4,0,0,1,6.4,6.4V84a6.39,6.39,0,0,1-6.4,6.4H369.24a8.49,8.49,0,0,1-8.49-8.49V13.57A8.49,8.49,0,0,1,369.24,5.08Z"/><path class="cls-1" d="M147.75,22.26a10.63,10.63,0,1,1,10.63-10.63A10.64,10.64,0,0,1,147.75,22.26Z"/><path class="cls-2" d="M147.75,2a9.63,9.63,0,1,1-9.63,9.63A9.63,9.63,0,0,1,147.75,2m0-2a11.63,11.63,0,1,0,11.63,11.63A11.65,11.65,0,0,0,147.75,0Z"/><circle class="cls-3" cx="327.97" cy="83.66" r="10.63"/><path class="cls-2" d="M328,74a9.63,9.63,0,1,1-9.63,9.63A9.63,9.63,0,0,1,328,74m0-2A11.63,11.63,0,1,0,339.6,83.66,11.64,11.64,0,0,0,328,72Z"/><circle class="cls-4" cx="11.63" cy="83.66" r="10.63"/><path class="cls-2" d="M11.63,74A9.63,9.63,0,1,1,2,83.66,9.63,9.63,0,0,1,11.63,74m0-2A11.63,11.63,0,1,0,23.26,83.66,11.65,11.65,0,0,0,11.63,72Z"/></g></g></svg>