<svg xmlns="http://www.w3.org/2000/svg" xmlns:xlink="http://www.w3.org/1999/xlink" viewBox="0 0 274.6 252"><defs><style>.cls-1{opacity:0.15;}.cls-2{fill:url(#linear-gradient);}.cls-3{fill:#878787;}.cls-4{fill:#30d673;}.cls-5{fill:#fff;}.cls-6{fill:#373737;}</style><linearGradient id="linear-gradient" x1="137.6" y1="252" x2="137.6" y2="18" gradientUnits="userSpaceOnUse"><stop offset="0" stop-color="#303030"/><stop offset="1" stop-color="#3c3c3c"/></linearGradient></defs><g id="Layer_2" data-name="Layer 2"><g id="Layer_1-2" data-name="Layer 1"><circle class="cls-1" cx="162.1" cy="112.5" r="112.5"/><circle class="cls-2" cx="137.6" cy="135" r="117"/><path class="cls-3" d="M183.44,208.3a16.8,16.8,0,0,0-21.09-10.85l-.79.26c-.4.13-.84.28-1.23.45A16.8,16.8,0,1,0,173,229.26l.78-.32A16.88,16.88,0,0,0,183.44,208.3Z"/><path class="cls-3" d="M216.13,171.85a14.93,14.93,0,0,0-20.95,2.38l-.78,1c-.23.29-.47.62-.69.94a15,15,0,0,0,24.78,16.77l.71-1A15,15,0,0,0,216.13,171.85Z"/><path class="cls-3" d="M224,123.8a13.05,13.05,0,0,0-14.1,11.92l-.1,1.19c0,.33,0,.68,0,1a13.11,13.11,0,0,0,13,13.19h.09a13.11,13.11,0,0,0,13.1-13v-1.2A13.14,13.14,0,0,0,224,123.8Z"/><path class="cls-3" d="M199.54,86a11.11,11.11,0,0,0,1,8.52l.55,1c.14.23.29.5.45.73a11.24,11.24,0,1,0,18.78-12.37l-.63-1a11.29,11.29,0,0,0-14.79-3.64A11.14,11.14,0,0,0,199.54,86Z"/><path class="cls-3" d="M169,64.7l1,.54.6.27a9.4,9.4,0,0,0,12.29-5,9.37,9.37,0,0,0-5-12.29l-1-.44A9.35,9.35,0,0,0,169,64.7Z"/><path class="cls-3" d="M126.31,57.1l.53-.09a7.54,7.54,0,0,0-1.44-14.93,7.14,7.14,0,0,0-1.45.15l-1.08.21a7.53,7.53,0,0,0-6,8.23,7.5,7.5,0,0,0,8.32,6.56Z"/><path class="cls-3" d="M84.77,66.81a5.65,5.65,0,0,0-4-1.68h0a5.65,5.65,0,0,0-4,1.65l-.76.76a5.64,5.64,0,0,0,7.63,8.29l.84-.72.29-.27a5.67,5.67,0,0,0,0-8Z"/><path class="cls-4" d="M1.22,151.2C-3.41,120.76,4.78,103.94,32,99.79c23.39-3.56,35.86,3,38.9,23L46,126.54c-.7-4.56-4.49-8.09-11.82-7-6.51,1-10.85,6.89-8.66,21.28,3.82-4.68,10.25-7.08,16.76-8.07,22.27-3.39,33.59,6.78,36,22.28,2.4,15.77-6,32.06-31.2,35.9C17.59,195.43,5.86,181.65,1.22,151.2Zm52,8.37c-1-6.5-6.59-8.9-13-7.93-6.64,1-11.27,5-10.28,11.47S36.53,172,43.17,171C49.54,170,54.15,165.94,53.18,159.57Z"/><path class="cls-4" d="M85.21,138.41c-3.67-24.07-.73-46.61,31.24-51.47,32.38-4.94,41.89,15.7,45.58,39.92,3.64,23.94.7,46.47-31.68,51.4S88.88,162.49,85.21,138.41Zm50.11-7.49c-2.17-14.25-3.15-24.43-15.61-22.54-11.9,1.82-10.08,11.87-7.93,26,2.19,14.39,3.43,24.39,15.33,22.58C139.56,155.06,137.49,145.18,135.32,130.92Z"/><path class="cls-5" d="M73.12,199.33l-2.56.39-.51-3.39,2.37-1.62-.21-1.36c-.65-4.28,2.32-5.9,8.67-6.4l.68,4.41c-3,.12-3.54.82-3.41,1.68l.12.77,3.58-.54.7,4.62-3.7.57,1.69,11.09-5.73.87Z"/><path class="cls-5" d="M84,192.94l3.23-.5,1.24,1.71a6.53,6.53,0,0,1,4.6-2.91c5.55-.85,7.62,3.41,8.18,7.11s.13,8.34-4.61,9.06a7.19,7.19,0,0,1-4.68-.68l1.1,7.21-5.73.88Zm11.4,6.3c-.31-2-.61-3.53-2.73-3.21s-2.08,1.86-1.77,3.9.56,3.51,2.81,3.16S95.74,201.25,95.44,199.24Z"/><path class="cls-5" d="M103.05,200.54l5.64-.86c.23,1.51.94,2.26,2.57,2,1.2-.19,1.81-.75,1.68-1.65-.45-2.92-9.65.46-10.51-5.24-.4-2.59,1.1-5.15,6.68-6s7.59.55,8.14,4.19l-5.45.83c-.19-1.27-.82-1.86-2.15-1.66s-1.74.77-1.63,1.51c.39,2.52,9.65-.62,10.51,5,.41,2.65-1.35,5.6-6.68,6.41S103.66,204.55,103.05,200.54Z"/><path class="cls-5" d="M180.24,155.18a8.39,8.39,0,0,1-8.3-7.2l-2.08-14.42-15,2.17a8.11,8.11,0,0,1-1.21.08,8.41,8.41,0,0,1-8.3-7.19,8.42,8.42,0,0,1,7.11-9.52l15-2.16-2.08-14.42a8.42,8.42,0,0,1,8.33-9.6,8.46,8.46,0,0,1,8.32,7.2l2.08,14.42L199,112.39a8.25,8.25,0,0,1,1.22-.09A8.4,8.4,0,0,1,201.37,129l-14.87,2.15,2.09,14.42a8.43,8.43,0,0,1-8.35,9.6Z"/><path class="cls-6" d="M173.7,95.42a5.91,5.91,0,0,1,5.84,5.06L182,117.37l17.35-2.51a6.11,6.11,0,0,1,.86-.06,5.9,5.9,0,0,1,.82,11.74L183.67,129l2.44,16.89a5.88,5.88,0,0,1-5,6.68,5.3,5.3,0,0,1-.88.07,5.92,5.92,0,0,1-5.83-5.06L172,130.73l-17.44,2.52a6.33,6.33,0,0,1-.86.06,5.89,5.89,0,0,1-.83-11.73l17.45-2.52-2.44-16.89a5.88,5.88,0,0,1,5-6.68,5.07,5.07,0,0,1,.86-.07m0-5h0a10.51,10.51,0,0,0-1.58.12,10.9,10.9,0,0,0-9.22,12.34l1.72,11.94-12.49,1.81a10.9,10.9,0,0,0,1.54,21.68,10.49,10.49,0,0,0,1.58-.11l12.49-1.8,1.72,11.94a10.91,10.91,0,0,0,21.6-3.12l-1.73-11.94,12.4-1.8a10.9,10.9,0,0,0-1.54-21.68,10.64,10.64,0,0,0-1.59.12l-12.38,1.78-1.73-11.94a11,11,0,0,0-10.79-9.34Z"/></g></g></svg>