<svg xmlns="http://www.w3.org/2000/svg" xmlns:xlink="http://www.w3.org/1999/xlink" viewBox="0 0 403.1 217.46"><defs><style>.cls-1{opacity:0.15;}.cls-2{fill:url(#linear-gradient);}.cls-3{fill:#fff;}.cls-4{fill:url(#linear-gradient-2);}.cls-5{fill:url(#linear-gradient-3);}</style><linearGradient id="linear-gradient" x1="98.94" y1="120.55" x2="74.15" y2="17.29" gradientTransform="translate(-10.3 18.89) rotate(-12.11)" gradientUnits="userSpaceOnUse"><stop offset="0" stop-color="#1e56d4"/><stop offset="1" stop-color="#2f6aec"/></linearGradient><linearGradient id="linear-gradient-2" x1="352.16" y1="162.91" x2="336.64" y2="86.9" gradientTransform="translate(-6.76 180.29) rotate(-29.42)" gradientUnits="userSpaceOnUse"><stop offset="0" stop-color="#309e64"/><stop offset="1" stop-color="#30d673"/></linearGradient><linearGradient id="linear-gradient-3" x1="184.19" y1="221.61" x2="216.89" y2="128.98" gradientTransform="translate(33.07 -35.25) rotate(10.63)" gradientUnits="userSpaceOnUse"><stop offset="0" stop-color="#ca2e5d"/><stop offset="1" stop-color="#f23d63"/></linearGradient></defs><g id="Layer_2" data-name="Layer 2"><g id="Layer_1-2" data-name="Layer 1"><g class="cls-1"><path d="M81.35,13.46l-60-7C8.41,5-1.11,14.11.1,26.86l5.64,59C7,98.61,18.45,110.17,31.41,111.67l60,7c13,1.5,22.48-7.61,21.26-20.36l-5.63-59C105.8,26.52,94.31,15,81.35,13.46Z"/><path d="M356.14,65.63,296.2,47.44c-12.95-3.93-24.5,2.79-25.81,15l-6,56.56c-1.3,12.22,8.15,25.31,21.1,29.24l59.94,18.19c12.95,3.93,24.51-2.79,25.81-15l6-56.55C378.54,82.66,369.1,69.56,356.14,65.63Z"/><path d="M215.22,106.65c-7.42-11.85-22.1-17.45-32.8-12.51L132.9,117c-10.7,4.93-13.37,18.54-6,30.39l34.3,54.84c7.42,11.85,22.1,17.46,32.8,12.52l49.52-22.85c10.7-4.94,13.37-18.55,6-30.4Z"/></g><rect class="cls-2" x="31.43" y="5.53" width="105" height="105" rx="23.05" transform="translate(14.03 -16.31) rotate(12.11)"/><path class="cls-3" d="M101.86,30.17l-3.25-.7a10.3,10.3,0,0,0-7.8,1.43c-.23.15-.44.3-.65.46-.13-.23-.25-.46-.4-.68a10.27,10.27,0,0,0-6.53-4.51L80,25.47a2.5,2.5,0,1,0-1,4.89l3.25.7a5.36,5.36,0,0,1,4.12,6.37L77.44,78.76a5.36,5.36,0,0,1-6.37,4.12l-3.25-.7a2.5,2.5,0,1,0-1,4.89l3.25.7a10.37,10.37,0,0,0,7.8-1.43c.23-.15.44-.31.65-.47a10.34,10.34,0,0,0,6.93,5.2l3.25.7a3.17,3.17,0,0,0,.53,0,2.5,2.5,0,0,0,.52-4.94l-3.26-.7a5.37,5.37,0,0,1-4.11-6.37l8.86-41.33a5.36,5.36,0,0,1,6.37-4.12l3.25.7a2.5,2.5,0,0,0,1-4.89Z"/><rect class="cls-4" x="287.43" y="50.53" width="105" height="105" rx="23.05" transform="translate(94.47 -153.71) rotate(29.42)"/><path class="cls-3" d="M319.9,85.73l8.9,31.92a4.27,4.27,0,0,0,5.25,3l31.91-8.9a4.26,4.26,0,0,0,1-7.81l-40.81-23A4.26,4.26,0,0,0,319.9,85.73Z"/><rect class="cls-5" x="153.43" y="107.53" width="105" height="105" rx="23.05" transform="translate(-25.99 40.75) rotate(-10.63)"/><path class="cls-3" d="M227.78,154.69c-3-15.92-9.24-26.34-27-23-17.42,3.27-19.46,15.25-16.49,31.09s9.14,26.28,26.65,23C228.7,182.43,230.74,170.45,227.78,154.69Zm-26-17.62a16.89,16.89,0,0,1,9.16.4l-16.7,35.75a45,45,0,0,1-3.49-11.66C188.3,148.37,189.36,139.41,201.8,137.07Zm8.13,43.3c-4.08.76-7.26.43-9.8-.82l17.05-36.5c1.92,3.27,3.15,7.65,4.13,12.86C223.77,169,222.79,178,209.93,180.37Z"/></g></g></svg>