<svg xmlns="http://www.w3.org/2000/svg" viewBox="0 0 682 328"><defs><style>.cls-1{fill:#f2f2f2;}.cls-2{fill:#f23d63;}.cls-3{fill:#309ff0;}.cls-4{fill:#4de48a;}.cls-5{fill:#b3b3b3;}.cls-6{fill:none;stroke:#000;stroke-linecap:round;stroke-miterlimit:10;stroke-width:4px;}</style></defs><g id="Layer_2" data-name="Layer 2"><g id="Layer_1-2" data-name="Layer 1"><rect class="cls-1" width="682" height="328" rx="21.49"/><circle class="cls-2" cx="148" cy="62" r="16"/><path class="cls-2" d="M180,116a32,32,0,0,0-64,0Z"/><circle class="cls-3" cx="525" cy="62" r="16"/><path class="cls-3" d="M557,116a32,32,0,0,0-64,0Z"/><circle class="cls-4" cx="148" cy="230" r="16"/><path class="cls-4" d="M180,284a32,32,0,0,0-64,0Z"/><circle class="cls-5" cx="525" cy="230" r="16"/><path class="cls-5" d="M557,284a32,32,0,0,0-64,0Z"/><path d="M129.72,128.83v-1.37a3.17,3.17,0,0,0,.64.06c.82,0,1-.36,1-.85v-5.52h1.71v5.44c0,1.57-.45,2.3-2.31,2.3A7.87,7.87,0,0,1,129.72,128.83Z"/><path d="M134.22,125.76c0-1.54.55-3.17,3-3.17s3,1.87,2.81,3.82H135.9a1.21,1.21,0,0,0,1.31,1.24c.75,0,1-.32,1.12-.68h1.74c-.11,1-.82,1.95-2.8,1.95C134.76,128.92,134.22,127.34,134.22,125.76Zm4.13-.61a1.15,1.15,0,0,0-1.23-1.27,1.17,1.17,0,0,0-1.22,1.27Z"/><path d="M141.46,124h-.92v-.8l.91-.52V122c0-1.43.89-1.93,3.1-1.8v1.36c-1.24-.11-1.47.21-1.47.62v.47h1.47V124h-1.47v4.81h-1.63Z"/><path d="M146,124h-.93v-.8l.92-.52V122c0-1.43.88-1.93,3.09-1.8v1.36c-1.24-.11-1.46.21-1.46.62v.47h1.46V124h-1.46v4.81H146Z"/><path d="M150,122.69h.69l.38,1a2.2,2.2,0,0,1,2.24-1v1.47c-1.43-.15-1.67.63-1.67,1.49v3.25H150Z"/><path d="M153.57,125.76c0-1.54.55-3.17,3-3.17,2.33,0,3,1.87,2.8,3.82h-4.16a1.22,1.22,0,0,0,1.32,1.24c.74,0,1-.32,1.12-.68h1.73c-.1,1-.81,1.95-2.79,1.95C154.11,128.92,153.57,127.34,153.57,125.76Zm4.14-.61a1.15,1.15,0,0,0-1.24-1.27,1.18,1.18,0,0,0-1.22,1.27Z"/><path d="M160.32,129.36H162c0,.46.13.73,1.26.73s1.25-.43,1.25-1v-.88a2,2,0,0,1-1.73.74c-1.93,0-2.36-1.07-2.36-2.8v-3.43H162v3.57c0,.87.18,1.3,1.21,1.3s1.25-.49,1.25-1.38v-3.49h1.64v6.23c0,1.19-.43,2.4-2.9,2.4S160.32,130.56,160.32,129.36Z"/><path d="M127.73,294c0-2.1.66-3.93,3.55-3.93,2.54,0,3.48,1.4,3.48,3H133a1.55,1.55,0,0,0-1.74-1.57c-1.56,0-1.83,1.12-1.83,2.52s.27,2.52,1.83,2.52a1.54,1.54,0,0,0,1.74-1.58h1.75c0,1.68-.91,3-3.49,3C128.35,297.92,127.73,296.09,127.73,294Z"/><path d="M135.59,296c0-1.17.77-1.67,2.57-1.83l1.63-.14a1.08,1.08,0,0,0-1.24-1.18c-.87,0-1.12.4-1.12,1h-1.64c0-1.26.52-2.28,2.73-2.28,2.55,0,2.91,1.13,2.91,2.76v3.48h-.69l-.38-1a2.59,2.59,0,0,1-2.32,1.07C136.67,297.92,135.59,297.33,135.59,296Zm4.2-.87-1.38.16c-.85.08-1.1.3-1.1.62s.32.72,1.12.72C139.45,296.64,139.78,296,139.79,295.14Z"/><path d="M142.61,291.69h.68l.39,1a2.19,2.19,0,0,1,2.24-1v1.47c-1.43-.15-1.67.63-1.67,1.49v3.25h-1.64Z"/><path d="M146.68,291.69h.71l.37,1a2.08,2.08,0,0,1,2-1.11,1.76,1.76,0,0,1,1.7.91,1.92,1.92,0,0,1,1.83-.91c1.68,0,2,1.21,2,2.58v3.66h-1.67v-3.77c0-.58-.13-1.08-.9-1.08s-.93.48-.93,1.08v3.77h-1.66v-3.77c0-.58-.13-1.08-.9-1.08s-1,.51-1,1.11v3.74h-1.64Z"/><path d="M156.21,294.76c0-1.54.55-3.17,3-3.17s3,1.87,2.81,3.82h-4.17a1.22,1.22,0,0,0,1.32,1.24c.75,0,1-.32,1.12-.68h1.74c-.11,1-.82,1.95-2.8,1.95C156.75,297.92,156.21,296.34,156.21,294.76Zm4.13-.61a1.15,1.15,0,0,0-1.23-1.27,1.18,1.18,0,0,0-1.23,1.27Z"/><path d="M163.08,291.69h.69l.38,1a2.36,2.36,0,0,1,2.31-1.06c1.95,0,2.37,1.18,2.37,2.89v3.35h-1.65v-3.48c0-.87-.18-1.38-1.2-1.38s-1.26.53-1.26,1.42v3.44h-1.64Z"/><path d="M500.74,121.15h2.82c3,0,3.25,1.57,3.25,2.63s-.16,2.59-3.16,2.59h-1.21v2.46h-1.7Zm2.89,3.87c1.26,0,1.44-.69,1.44-1.22s-.18-1.23-1.44-1.23h-1.19V125Z"/><path d="M507.41,125.76c0-1.54.55-3.17,3-3.17,2.34,0,3,1.87,2.8,3.82h-4.16a1.22,1.22,0,0,0,1.32,1.24c.74,0,1-.32,1.12-.68h1.74c-.11,1-.82,1.95-2.8,1.95C508,128.92,507.41,127.34,507.41,125.76Zm4.14-.61a1.15,1.15,0,0,0-1.24-1.27,1.18,1.18,0,0,0-1.22,1.27Z"/><path d="M514.29,122.69H515l.39,1a2.36,2.36,0,0,1,2.31-1.06c1.94,0,2.36,1.18,2.36,2.89v3.35h-1.64v-3.48c0-.87-.18-1.38-1.2-1.38s-1.26.53-1.26,1.42v3.44h-1.64Z"/><path d="M520.9,125.76c0-1.54.55-3.17,3-3.17s3,1.87,2.81,3.82h-4.16a1.22,1.22,0,0,0,1.32,1.24c.74,0,1-.32,1.11-.68h1.74c-.11,1-.81,1.95-2.79,1.95C521.44,128.92,520.9,127.34,520.9,125.76Zm4.14-.61a1.15,1.15,0,0,0-1.24-1.27,1.17,1.17,0,0,0-1.22,1.27Z"/><path d="M527.78,120.35h1.64v8.48h-1.64Z"/><path d="M530.43,125.75c0-1.62.67-3.16,3.06-3.16s3,1.54,3,3.16-.69,3.17-3.08,3.17S530.43,127.38,530.43,125.75Zm4.5,0c0-1-.29-1.77-1.44-1.77s-1.44.76-1.44,1.77.31,1.77,1.41,1.77S534.93,126.78,534.93,125.75Z"/><path d="M537.54,122.69h.71l.36,1a2.46,2.46,0,0,1,2.36-1.12c1.93,0,2.66,1.57,2.66,3.19s-.67,3.14-2.61,3.14a2.13,2.13,0,0,1-1.85-.75v3.06h-1.63Zm4.41,3.09c0-1-.3-1.84-1.42-1.84s-1.37.76-1.37,1.84.17,1.77,1.35,1.77S542,126.84,542,125.78Z"/><path d="M544.36,125.76c0-1.54.55-3.17,3-3.17s3,1.87,2.81,3.82H546a1.22,1.22,0,0,0,1.32,1.24c.74,0,1-.32,1.11-.68h1.74c-.1,1-.81,1.95-2.79,1.95C544.9,128.92,544.36,127.34,544.36,125.76Zm4.14-.61a1.15,1.15,0,0,0-1.24-1.27,1.18,1.18,0,0,0-1.22,1.27Z"/><path d="M511.86,290.15h2.52l1.94,5a6.14,6.14,0,0,1,.25.9,4.2,4.2,0,0,1,.24-.9l2-5h2.5v7.68h-1.72v-5.65l-2.16,5.65h-1.69l-2.17-5.65v5.65h-1.69Z"/><path d="M522.44,296c0-1.17.77-1.67,2.57-1.83l1.63-.14a1.08,1.08,0,0,0-1.24-1.18c-.87,0-1.12.4-1.12,1h-1.63c0-1.26.51-2.28,2.72-2.28,2.55,0,2.91,1.13,2.91,2.76v3.48h-.69l-.38-1a2.56,2.56,0,0,1-2.32,1.07C523.52,297.92,522.44,297.33,522.44,296Zm4.2-.87-1.38.16c-.85.08-1.1.3-1.1.62s.32.72,1.12.72C526.3,296.64,526.63,296,526.64,295.14Z"/><path d="M529.46,291.69h.69l.38,1a2.2,2.2,0,0,1,2.24-1v1.47c-1.43-.15-1.66.63-1.66,1.49v3.25h-1.65Z"/><path d="M533.53,289.35h1.64v4.58l1.91-2.24h2.22l-2.84,2.9,3,3.24h-2.21l-2.08-2.58v2.58h-1.64Z"/><line class="cls-6" x1="185" y1="261" x2="483" y2="121"/><line class="cls-6" x1="525" y1="203" x2="525" y2="141"/><line class="cls-6" x1="148" y1="203" x2="148" y2="141"/><line class="cls-6" x1="192" y1="100" x2="480" y2="100"/></g></g></svg>