<svg xmlns="http://www.w3.org/2000/svg" xmlns:xlink="http://www.w3.org/1999/xlink" viewBox="0 0 563.72 601.19"><defs><style>.cls-1,.cls-4{fill:none;}.cls-1{stroke:#999;stroke-linecap:round;stroke-width:3px;}.cls-1,.cls-28,.cls-4,.cls-5{stroke-miterlimit:10;}.cls-2{fill:#545556;}.cls-3{fill:#4a4b4c;}.cls-4{stroke:#2f3030;}.cls-28,.cls-5{stroke:#3a3a3a;}.cls-5{fill:url(#linear-gradient);}.cls-6{opacity:0.45;}.cls-7{fill:url(#linear-gradient-2);}.cls-8{fill:url(#linear-gradient-3);}.cls-9{fill:url(#linear-gradient-4);}.cls-10{fill:#3a3a3a;}.cls-11{fill:url(#linear-gradient-5);}.cls-12{fill:url(#linear-gradient-6);}.cls-13{fill:url(#linear-gradient-7);}.cls-14{fill:url(#linear-gradient-8);}.cls-15{fill:url(#linear-gradient-9);}.cls-16{fill:url(#linear-gradient-10);}.cls-17{fill:url(#linear-gradient-11);}.cls-18{fill:url(#linear-gradient-12);}.cls-19{fill:url(#linear-gradient-13);}.cls-20{fill:url(#linear-gradient-14);}.cls-21{fill:url(#linear-gradient-15);}.cls-22{fill:url(#linear-gradient-16);}.cls-23{fill:url(#linear-gradient-17);}.cls-24{fill:url(#linear-gradient-18);}.cls-25{fill:url(#linear-gradient-19);}.cls-26{fill:url(#linear-gradient-20);}.cls-27{fill:url(#linear-gradient-21);}.cls-28{fill:url(#linear-gradient-22);}</style><linearGradient id="linear-gradient" x1="341.01" y1="77.77" x2="341.01" y2="47.57" gradientUnits="userSpaceOnUse"><stop offset="0" stop-color="#6e6e6e"/><stop offset="1" stop-color="#5e5f60"/></linearGradient><linearGradient id="linear-gradient-2" x1="251.46" y1="68.92" x2="251.46" y2="55.38" gradientUnits="userSpaceOnUse"><stop offset="0" stop-color="#ca2e5d"/><stop offset="1" stop-color="#f23d63"/><stop offset="1" stop-color="#5e5f60"/></linearGradient><linearGradient id="linear-gradient-3" x1="251.46" y1="116.82" x2="251.46" y2="103.28" xlink:href="#linear-gradient-2"/><linearGradient id="linear-gradient-4" x1="428.48" y1="141.81" x2="428.48" y2="128.27" xlink:href="#linear-gradient-2"/><linearGradient id="linear-gradient-5" x1="283.74" y1="289.66" x2="283.74" y2="276.13" gradientUnits="userSpaceOnUse"><stop offset="0" stop-color="#309e64"/><stop offset="1" stop-color="#30d673"/></linearGradient><linearGradient id="linear-gradient-6" x1="283.74" y1="325.07" x2="283.74" y2="311.53" xlink:href="#linear-gradient-5"/><linearGradient id="linear-gradient-7" x1="417.02" y1="362.55" x2="417.02" y2="349.02" xlink:href="#linear-gradient-5"/><linearGradient id="linear-gradient-8" x1="318.1" y1="506.24" x2="318.1" y2="492.71" gradientUnits="userSpaceOnUse"><stop offset="0" stop-color="#1e56d4"/><stop offset="1" stop-color="#2f6aec"/></linearGradient><linearGradient id="linear-gradient-9" x1="318.1" y1="541.65" x2="318.1" y2="528.11" xlink:href="#linear-gradient-8"/><linearGradient id="linear-gradient-10" x1="451.38" y1="579.13" x2="451.38" y2="565.6" xlink:href="#linear-gradient-8"/><linearGradient id="linear-gradient-11" x1="102.56" y1="194.91" x2="102.56" y2="181.37" xlink:href="#linear-gradient-2"/><linearGradient id="linear-gradient-12" x1="102.56" y1="161.59" x2="102.56" y2="148.05" xlink:href="#linear-gradient-2"/><linearGradient id="linear-gradient-13" x1="192.11" y1="363.59" x2="192.11" y2="350.06" xlink:href="#linear-gradient-5"/><linearGradient id="linear-gradient-14" x1="192.11" y1="395.87" x2="192.11" y2="382.34" xlink:href="#linear-gradient-5"/><linearGradient id="linear-gradient-15" x1="192.11" y1="430.23" x2="192.11" y2="416.7" xlink:href="#linear-gradient-8"/><linearGradient id="linear-gradient-16" x1="192.11" y1="464.59" x2="192.11" y2="451.06" xlink:href="#linear-gradient-8"/><linearGradient id="linear-gradient-17" x1="192.11" y1="330.27" x2="192.11" y2="316.74" xlink:href="#linear-gradient-5"/><linearGradient id="linear-gradient-18" x1="490.95" y1="347.97" x2="490.95" y2="334.44" xlink:href="#linear-gradient-5"/><linearGradient id="linear-gradient-19" x1="490.95" y1="383.38" x2="490.95" y2="369.84" xlink:href="#linear-gradient-5"/><linearGradient id="linear-gradient-20" x1="534.89" y1="355.78" x2="534.89" y2="325.59" xlink:href="#linear-gradient"/><linearGradient id="linear-gradient-21" x1="557.2" y1="355.78" x2="557.2" y2="325.59" xlink:href="#linear-gradient"/><linearGradient id="linear-gradient-22" x1="535.06" y1="355.78" x2="535.06" y2="325.59" xlink:href="#linear-gradient"/></defs><g id="Layer_2" data-name="Layer 2"><g id="Layer_1-2" data-name="Layer 1"><path class="cls-1" d="M250.94,110.57c-65.82,0-68.47,78.09-145.77,78.09"/><path class="cls-1" d="M429,135.56c57.63,0,80.53,34,133,44.06"/><path class="cls-1" d="M192.11,323.5c45.82,0,45.82-40.6,91.63-40.6"/><path class="cls-1" d="M192.11,356.82c45.82,0,45.82-39,91.63-39"/><rect class="cls-2" x="251.98" width="177.01" height="163.87" rx="8.31"/><path class="cls-3" d="M260.3,0H420.68A8.31,8.31,0,0,1,429,8.31v20a0,0,0,0,1,0,0H252a0,0,0,0,1,0,0v-20A8.31,8.31,0,0,1,260.3,0Z"/><line class="cls-4" x1="251.98" y1="28.31" x2="429" y2="28.31"/><path d="M265.47,9.49H268l4.07,10.86h-2l-.73-2.12H264l-.78,2.12H261.3Zm3.41,7.38-2.19-6.17-2.2,6.17Z"/><path d="M272.26,16c0-2.38.81-4.47,3.7-4.47a3.31,3.31,0,0,1,3,1.19V8.36h1.78v12h-1l-.41-1.24c-.31.6-1.27,1.36-3.33,1.36C273.1,20.47,272.26,18.38,272.26,16Zm6.66,0c0-1.68-.35-2.94-2.42-2.94s-2.39,1.19-2.39,2.94.4,3,2.37,3S278.92,17.79,278.92,16Z"/><path d="M282.11,16c0-2.38.81-4.47,3.7-4.47a3.3,3.3,0,0,1,2.95,1.19V8.36h1.78v12h-1l-.41-1.24c-.3.6-1.27,1.36-3.32,1.36C283,20.47,282.11,18.38,282.11,16Zm6.67,0c0-1.68-.36-2.94-2.43-2.94S284,14.26,284,16s.41,3,2.37,3S288.78,17.79,288.78,16Z"/><path d="M296.41,9.49h2.39l5.6,8.42V9.49h1.87V20.35H304l-5.69-8.48v8.48h-1.86Z"/><path d="M308.13,16.43V11.66h1.78v4.91c0,1.56.29,2.37,2.15,2.37s2.23-.88,2.23-2.46V11.66h1.83v8.69h-1l-.37-1.25c-.33.62-1.24,1.37-3.2,1.37C308.69,20.47,308.13,18.89,308.13,16.43Z"/><path d="M317.86,11.66h1l.4,1.12a2.76,2.76,0,0,1,2.67-1.24,2.31,2.31,0,0,1,2.39,1.35,2.69,2.69,0,0,1,2.7-1.35c2.37,0,2.87,1.67,2.87,3.7v5.11H328V15.14c0-1.22-.22-2.07-1.61-2.07s-1.64.83-1.64,2.07v5.21H323V15.14c0-1.22-.22-2.07-1.61-2.07s-1.66.83-1.66,2.07v5.21h-1.82Z"/><path d="M332.86,19.1l-.38,1.25h-1v-12h1.78v4.36c.37-.58,1.24-1.18,3-1.18,2.87,0,3.67,2.09,3.67,4.47s-.85,4.46-3.7,4.46C334.13,20.47,333.2,19.69,332.86,19.1ZM338.08,16c0-1.75-.42-2.94-2.42-2.94s-2.4,1.22-2.4,2.92.43,3,2.45,3S338.08,17.79,338.08,16Z"/><path d="M341.05,16c0-2.32.88-4.45,4.34-4.45,3.21,0,4.11,2.45,3.89,5.18h-6.35a2.21,2.21,0,0,0,2.41,2.36c1.44,0,1.9-.7,2.07-1.39h1.9c-.15,1.47-1.17,2.78-3.9,2.78C341.91,20.47,341.05,18.32,341.05,16Zm6.36-.71s0,0,0,0,0,0,0,0A2,2,0,0,0,345.22,13C343.53,13,343,14,343,15.28Z"/><path d="M350.77,11.66h1l.43,1.21a2.88,2.88,0,0,1,2.8-1.33h.29v1.62c-.17,0-.34,0-.5,0-1.81,0-2.17,1-2.17,2.41v4.82h-1.81Z"/><path d="M355.4,17.26h1.78c0,1.17.8,1.77,2.37,1.77,1.24,0,2.07-.43,2.07-1.1s-1-1-2.49-1.31c-1.87-.36-3.56-.8-3.56-2.43s1.25-2.65,3.8-2.65,3.82,1.07,3.82,3.11h-1.7c-.07-1.19-.73-1.7-2.17-1.7s-1.95.39-1.95,1.09,1,.93,2.4,1.22c2,.39,3.64.73,3.64,2.58,0,1.58-1.53,2.63-3.82,2.63C356.77,20.47,355.4,19.42,355.4,17.26Z"/><rect class="cls-5" x="266.04" y="47.57" width="149.94" height="30.2" rx="4.16"/><path d="M273.46,68.25V66.6c0-4.17,6.16-3.31,6.3-5.85.08-1.19-.54-2-2.16-2s-2.22.93-2.22,2.34h-1.81c0-2.21,1-3.87,4-3.87s4.16,1.53,4.06,3.58c-.2,3.77-6.35,3-6.35,5.67v.2h6.33v1.55Z"/><path d="M282.93,62.82c0-3.24.86-5.55,4.49-5.55S292,59.58,292,62.84s-.87,5.53-4.54,5.53S282.93,66.06,282.93,62.82Zm7.16,0c0-2.46-.41-4-2.67-4s-2.63,1.57-2.63,4,.4,4,2.63,4S290.09,65.26,290.09,62.84Z"/><path d="M293.27,62.82c0-3.24.87-5.55,4.5-5.55s4.53,2.31,4.53,5.57-.86,5.53-4.53,5.53S293.27,66.06,293.27,62.82Zm7.16,0c0-2.46-.4-4-2.66-4s-2.63,1.57-2.63,4,.39,4,2.63,4S300.43,65.26,300.43,62.84Z"/><path d="M267.6,105.79h2.2l5.14,7.74v-7.74h1.72v10h-2.12l-5.23-7.8v7.8H267.6Z"/><path d="M278.37,112.17v-4.38H280v4.5c0,1.44.27,2.19,2,2.19s2-.81,2-2.26v-4.43h1.68v8h-.92l-.34-1.15c-.3.58-1.14,1.26-2.93,1.26C278.88,115.88,278.37,114.43,278.37,112.17Z"/><path d="M287.32,107.79h.9l.37,1a2.51,2.51,0,0,1,2.45-1.14,2.12,2.12,0,0,1,2.2,1.23,2.48,2.48,0,0,1,2.48-1.23c2.18,0,2.64,1.53,2.64,3.4v4.69h-1.69V111c0-1.12-.2-1.9-1.48-1.9s-1.51.77-1.51,1.9v4.79H292V111c0-1.12-.2-1.9-1.48-1.9s-1.53.77-1.53,1.9v4.79h-1.66Z"/><path d="M301.1,114.62l-.35,1.15h-.9v-11h1.64v4a3,3,0,0,1,2.71-1.07c2.63,0,3.37,1.92,3.37,4.1s-.78,4.1-3.4,4.1C302.27,115.88,301.41,115.16,301.1,114.62Zm4.8-2.84c0-1.61-.39-2.7-2.23-2.7s-2.2,1.12-2.2,2.68.39,2.76,2.25,2.76S305.9,113.42,305.9,111.78Z"/><path d="M308.62,111.76c0-2.13.81-4.08,4-4.08,2.94,0,3.77,2.24,3.57,4.75h-5.84a2,2,0,0,0,2.22,2.17c1.32,0,1.75-.64,1.9-1.28h1.75c-.14,1.36-1.08,2.56-3.59,2.56C309.42,115.88,308.62,113.9,308.62,111.76Zm5.85-.65s0,0,0,0,0,0,0,0a1.87,1.87,0,0,0-2-2.11c-1.56,0-2,1-2.09,2.14Z"/><path d="M317.55,107.79h.89l.39,1.1a2.66,2.66,0,0,1,2.58-1.21h.26v1.48c-.15,0-.31,0-.45,0-1.67,0-2,.92-2,2.21v4.43h-1.67Z"/><path d="M371.07,129.74h3.55c3.76,0,4.15,1.92,4.15,3.2,0,2.46-2,3-3.88,3l4.22,3.74H376.8l-4-3.91v3.91h-1.71Zm3.66,5c2,0,2.31-1,2.31-1.76s-.3-1.8-2.34-1.8h-1.92v3.56Z"/><path d="M379.69,135.71c0-2.13.81-4.08,4-4.08,2.95,0,3.77,2.24,3.57,4.75h-5.83a2,2,0,0,0,2.21,2.17c1.33,0,1.75-.64,1.9-1.28h1.75c-.14,1.36-1.07,2.56-3.59,2.56C380.48,139.83,379.69,137.85,379.69,135.71Zm5.84-.65s0,0,0,0,0,0,0,0a1.86,1.86,0,0,0-2-2.11c-1.56,0-2,1-2.09,2.14Z"/><path d="M388.2,136.88h1.63c0,1.08.74,1.62,2.19,1.62,1.14,0,1.9-.39,1.9-1s-.92-.93-2.29-1.2c-1.72-.33-3.28-.73-3.28-2.23s1.16-2.43,3.5-2.43,3.5,1,3.5,2.85h-1.56c-.06-1.09-.67-1.56-2-1.56s-1.79.36-1.79,1,.88.86,2.21,1.12c1.84.36,3.34.67,3.34,2.37,0,1.45-1.41,2.42-3.51,2.42C389.46,139.83,388.2,138.86,388.2,136.88Z"/><path d="M396.66,136.12v-4.38h1.64v4.5c0,1.44.26,2.19,2,2.19s2-.82,2-2.26v-4.43H404v8h-.92l-.35-1.15c-.29.57-1.14,1.26-2.93,1.26C397.18,139.83,396.66,138.38,396.66,136.12Z"/><path d="M405.61,128.7h1.67v11h-1.67Z"/><path d="M409.33,137.43v-4.35H408.2v-1l1.13-.34v-2H411v2h2.09v1.34H411v4.35c0,.75.31,1.09,2.05,1v1.34C410.44,139.94,409.33,139.32,409.33,137.43Z"/><circle class="cls-6" cx="251.46" cy="64.23" r="6.77"/><circle class="cls-7" cx="251.46" cy="62.15" r="6.77"/><circle class="cls-6" cx="251.46" cy="112.13" r="6.77"/><circle class="cls-8" cx="251.46" cy="110.05" r="6.77"/><circle class="cls-6" cx="428.48" cy="137.12" r="6.77"/><circle class="cls-9" cx="428.48" cy="135.04" r="6.77"/><polygon class="cls-10" points="400.11 59.55 408.94 59.55 404.53 55.13 400.11 59.55"/><polyline class="cls-10" points="409.21 64.75 400.38 64.75 404.8 69.17"/><path class="cls-1" d="M417,355.78c38.53,0,38.53,20.83,73.93,20.83"/><rect class="cls-2" x="284.26" y="220.75" width="133.28" height="163.87" rx="8.31"/><path class="cls-3" d="M292.58,220.75H409.23a8.31,8.31,0,0,1,8.31,8.31v20a0,0,0,0,1,0,0H284.26a0,0,0,0,1,0,0v-20A8.31,8.31,0,0,1,292.58,220.75Z"/><line class="cls-4" x1="284.26" y1="249.05" x2="417.54" y2="249.05"/><path d="M293.59,241.08v-1.49a6.5,6.5,0,0,0,1,.08c1.46,0,1.77-.64,1.77-1.7v-7.73h1.86l0,7.65c0,2.24-.61,3.29-3.16,3.29A12.42,12.42,0,0,1,293.59,241.08Z"/><path d="M299.89,236.75c0-2.29.9-4.46,4.31-4.46s4.31,2.17,4.31,4.46-.94,4.47-4.33,4.47S299.89,239.06,299.89,236.75Zm6.77,0c0-1.61-.41-3-2.46-3s-2.46,1.35-2.46,3,.44,3,2.44,3S306.66,238.43,306.66,236.75Z"/><path d="M309.47,230c0-.88.53-1.1,1.34-1.1s1.29.22,1.29,1.1-.51,1.09-1.29,1.09S309.47,230.85,309.47,230Zm.42,2.43h1.8v8.69h-1.8Z"/><path d="M313.42,232.41h1l.4,1.22c.29-.59,1.21-1.34,3.18-1.34,2.85,0,3.41,1.66,3.41,4.12v4.69h-1.8v-4.84c0-1.54-.27-2.46-2.12-2.46s-2.24.9-2.24,2.46v4.84h-1.82Z"/><path d="M329.26,231.76h-3.12v-1.52h8.06v1.52h-3.12v9.34h-1.82Z"/><path d="M333.33,236.74c0-2.33.88-4.45,4.35-4.45,3.2,0,4.1,2.44,3.88,5.18h-6.34a2.2,2.2,0,0,0,2.41,2.35c1.44,0,1.9-.69,2.07-1.39h1.9c-.16,1.48-1.17,2.79-3.91,2.79C334.2,241.22,333.33,239.06,333.33,236.74Zm6.37-.72s0,0,0,0,0,0,0,0a2,2,0,0,0-2.19-2.29c-1.7,0-2.19,1.05-2.28,2.32Z"/><path d="M345.07,236.6l-3.41-4.19h2.09l2.29,3.16,2.32-3.16h2L347,236.6l3.65,4.5h-2.19l-2.41-3.5-2.42,3.5h-2.21Z"/><path d="M352,238.6v-4.73h-1.24v-1.09l1.24-.37v-2.17h1.8v2.17h2.27v1.46h-2.22v4.73c0,.82.34,1.19,2.22,1.11v1.45C353.2,241.33,352,240.66,352,238.6Z"/><path d="M299.53,320.45h1.72c.06,1.47,1,2.2,2.73,2.2,1.6,0,2.4-.48,2.4-1.43s-.55-1.16-2.67-1.6c-2.88-.6-3.88-1.34-3.88-2.85,0-1.9,1.42-2.84,4-2.84s4.1,1.2,4.11,3.51h-1.7c-.07-1.43-.84-2.07-2.48-2.07s-2.23.42-2.23,1.34c0,.76.58,1.09,2.78,1.57,2.85.61,3.77,1.31,3.77,2.86,0,1.87-1.51,3-4,3C301,324.13,299.56,322.93,299.53,320.45Z"/><path d="M309.34,320c0-2.13.81-4.08,4-4.08,2.95,0,3.77,2.24,3.57,4.76h-5.83a2,2,0,0,0,2.21,2.16c1.33,0,1.75-.64,1.91-1.28h1.74c-.14,1.36-1.07,2.56-3.58,2.56C310.13,324.13,309.34,322.15,309.34,320Zm5.85-.65s0,0,0,0,0,0,0,0a1.87,1.87,0,0,0-2-2.11c-1.56,0-2,1-2.09,2.14Z"/><path d="M318,320c0-2.12.86-4.1,3.94-4.1,2.44,0,3.59,1.29,3.59,3.29h-1.7c-.11-1.23-.61-1.94-1.93-1.94-1.72,0-2.2,1.19-2.2,2.73s.47,2.69,2.23,2.69c1.32,0,1.79-.66,1.9-1.81h1.7c0,2-1.11,3.24-3.56,3.24C318.78,324.13,318,322.15,318,320Z"/><path d="M326.39,320c0-2.11.83-4.1,4-4.1s4,2,4,4.1-.85,4.1-4,4.1S326.39,322.15,326.39,320Zm6.22,0c0-1.48-.37-2.75-2.26-2.75s-2.26,1.25-2.26,2.75.41,2.75,2.25,2.75S332.61,321.57,332.61,320Z"/><path d="M335.62,316h.9l.38,1.12c.26-.55,1.1-1.23,2.91-1.23,2.62,0,3.14,1.53,3.14,3.79V324h-1.66v-4.44c0-1.42-.25-2.26-1.94-2.26s-2.06.82-2.06,2.26V324h-1.67Z"/><path d="M344.13,320c0-2.18.75-4.1,3.4-4.1a3,3,0,0,1,2.71,1.09v-4h1.64v11H351l-.38-1.14c-.28.55-1.17,1.25-3.06,1.25C344.91,324.13,344.13,322.21,344.13,320Zm6.13,0c0-1.54-.33-2.7-2.23-2.7s-2.2,1.09-2.2,2.7.37,2.73,2.18,2.73S350.26,321.67,350.26,320Z"/><path d="M357.22,314h1.72v4.2h4.89V314h1.74v10h-1.74v-4.4h-4.89V324h-1.72Z"/><path d="M367.06,321.68c0-1.46,1-2.13,3.32-2.35l2.51-.25c-.05-1.16-.47-1.83-2.07-1.83s-1.89.6-1.89,1.59l-1.62,0c0-1.65.68-2.93,3.49-2.93,3.26,0,3.73,1.4,3.73,3.55V324h-.91l-.34-1.2a3.63,3.63,0,0,1-3.13,1.31C368.43,324.13,367.06,323.37,367.06,321.68Zm5.83-1.09v-.25l-2.26.25c-1.39.16-1.86.45-1.86,1.08s.63,1.15,1.8,1.15A2.09,2.09,0,0,0,372.89,320.59Z"/><path d="M375.94,313h1.67v11h-1.67Z"/><path d="M379.58,317.39h-1.14v-1l1.14-.35v-.82c0-1.7.88-2.37,3-2.37h.74v1.36c-.25,0-.38,0-.53,0-1.31,0-1.64.36-1.64,1v.8h2.17v1.35h-2.17V324h-1.57Z"/><path d="M299.83,278.64h6.78V280h-5.08v2.79h4.71v1.39h-4.71v4.4h-1.7Z"/><path d="M307.31,278.41c0-.81.48-1,1.23-1s1.19.21,1.19,1-.47,1-1.19,1S307.31,279.2,307.31,278.41Zm.39,2.23h1.65v8H307.7Z"/><path d="M310.94,280.64h.89l.39,1.1a2.66,2.66,0,0,1,2.58-1.21h.26V282c-.16,0-.31,0-.45,0-1.67,0-2,.92-2,2.21v4.43h-1.67Z"/><path d="M315.2,285.78h1.64c0,1.08.73,1.62,2.18,1.62,1.14,0,1.9-.39,1.9-1s-.92-.94-2.29-1.2c-1.71-.33-3.27-.73-3.27-2.23s1.15-2.43,3.49-2.43,3.51,1,3.51,2.85H320.8c-.06-1.09-.67-1.56-2-1.56s-1.79.36-1.79,1,.89.86,2.21,1.12c1.84.36,3.34.67,3.34,2.37,0,1.45-1.4,2.42-3.51,2.42C316.46,288.73,315.2,287.76,315.2,285.78Z"/><path d="M323.82,286.33V282h-1.14v-1l1.14-.34v-2h1.65v2h2.09V282h-2v4.35c0,.75.31,1.09,2,1v1.34C324.93,288.84,323.82,288.21,323.82,286.33Z"/><path d="M332.36,278.64h1.72v4.19H339v-4.19h1.73v10H339v-4.4h-4.89v4.4h-1.72Z"/><path d="M342.2,286.28c0-1.46,1-2.14,3.32-2.35l2.51-.25c0-1.16-.47-1.83-2.07-1.83s-1.89.6-1.89,1.59l-1.62,0c0-1.65.68-2.93,3.49-2.93,3.26,0,3.73,1.4,3.73,3.55v4.54h-.91l-.34-1.2a3.68,3.68,0,0,1-3.14,1.31C343.57,288.73,342.2,288,342.2,286.28Zm5.83-1.09v-.25l-2.26.25c-1.39.16-1.86.45-1.86,1.08s.63,1.15,1.8,1.15A2.09,2.09,0,0,0,348,285.19Z"/><path d="M351.08,277.6h1.67v11h-1.67Z"/><path d="M354.71,282h-1.13v-1l1.13-.34v-.83c0-1.7.89-2.37,3-2.37.24,0,.47,0,.74,0v1.36c-.25,0-.38,0-.53,0-1.31,0-1.64.36-1.64,1v.8h2.17V282h-2.17v6.63h-1.58Z"/><path d="M326.5,360.45v-1.37a5.5,5.5,0,0,0,.94.08c1.34,0,1.62-.6,1.62-1.56v-7.11h1.72v7c0,2.06-.56,3-2.9,3A12.22,12.22,0,0,1,326.5,360.45Z"/><path d="M332.29,356.47c0-2.1.82-4.1,4-4.1s4,2,4,4.1-.86,4.11-4,4.11S332.29,358.6,332.29,356.47Zm6.22,0c0-1.48-.38-2.74-2.26-2.74S334,355,334,356.47s.4,2.75,2.24,2.75S338.51,358,338.51,356.47Z"/><path d="M341.09,350.25c0-.81.49-1,1.24-1s1.18.2,1.18,1-.47,1-1.18,1S341.09,351.05,341.09,350.25Zm.39,2.23h1.66v8h-1.66Z"/><path d="M344.73,352.48h.9l.37,1.13c.27-.55,1.11-1.24,2.92-1.24,2.62,0,3.14,1.53,3.14,3.79v4.31H350.4V356c0-1.42-.25-2.26-1.95-2.26s-2.06.83-2.06,2.26v4.45h-1.66Z"/><path d="M353.27,356.46c0-2.14.81-4.09,4-4.09,2.95,0,3.77,2.25,3.57,4.76H355a2,2,0,0,0,2.21,2.17c1.33,0,1.75-.64,1.91-1.28h1.74c-.14,1.35-1.07,2.56-3.58,2.56C354.06,360.58,353.27,358.6,353.27,356.46Zm5.85-.66s0,0,0,0,0,0,0,0a1.87,1.87,0,0,0-2-2.1c-1.56,0-2,1-2.09,2.13Z"/><path d="M361.89,356.47c0-2.18.75-4.1,3.4-4.1a3,3,0,0,1,2.71,1.09v-4h1.64v11h-.91l-.37-1.14c-.28.54-1.17,1.25-3.06,1.25C362.67,360.58,361.89,358.66,361.89,356.47Zm6.13,0c0-1.54-.33-2.69-2.23-2.69s-2.2,1.09-2.2,2.69.37,2.73,2.18,2.73S368,358.11,368,356.47Z"/><path d="M377,351.89h-2.87v-1.4h7.41v1.4h-2.87v8.58H377Z"/><path d="M380.73,356.46c0-2.14.81-4.09,4-4.09,2.95,0,3.78,2.25,3.58,4.76h-5.84a2,2,0,0,0,2.22,2.17c1.32,0,1.74-.64,1.9-1.28h1.75c-.14,1.35-1.08,2.56-3.59,2.56C381.53,360.58,380.73,358.6,380.73,356.46Zm5.85-.66s0,0,0,0,0,0,0,0a1.86,1.86,0,0,0-2-2.1c-1.56,0-2,1-2.09,2.13Z"/><path d="M391.52,356.33l-3.13-3.85h1.91l2.11,2.9,2.14-2.9h1.87l-3.12,3.85,3.35,4.14h-2l-2.21-3.22-2.23,3.22h-2Z"/><path d="M397.88,358.17v-4.35h-1.14v-1l1.14-.34v-2h1.65v2h2.09v1.34h-2v4.35c0,.75.31,1.1,2,1v1.34C399,360.69,397.88,360.06,397.88,358.17Z"/><circle class="cls-6" cx="283.74" cy="284.98" r="6.77"/><circle class="cls-11" cx="283.74" cy="282.9" r="6.77"/><circle class="cls-6" cx="283.74" cy="320.38" r="6.77"/><circle class="cls-12" cx="283.74" cy="318.3" r="6.77"/><circle class="cls-6" cx="417.02" cy="357.87" r="6.77"/><circle class="cls-13" cx="417.02" cy="355.78" r="6.77"/><path class="cls-1" d="M192.63,422.94c63.52,0,66.64,76,126,76"/><path class="cls-1" d="M451.38,572.36c58.37,0,70-50.24,110.84-67.89"/><path class="cls-1" d="M192.63,457.31c63.52,0,66.64,77.05,126,77.05"/><rect class="cls-2" x="318.62" y="437.33" width="133.28" height="163.87" rx="8.31"/><path class="cls-3" d="M326.94,437.33H443.59a8.31,8.31,0,0,1,8.31,8.31v20a0,0,0,0,1,0,0H318.62a0,0,0,0,1,0,0v-20A8.31,8.31,0,0,1,326.94,437.33Z"/><line class="cls-4" x1="318.62" y1="465.64" x2="451.9" y2="465.64"/><path d="M332.11,446.82h2.53l4.07,10.86h-2l-.73-2.12h-5.33l-.78,2.12h-1.95Zm3.41,7.38L333.33,448l-2.2,6.18Z"/><path d="M339.54,449h1l.41,1.22c.29-.59,1.21-1.34,3.17-1.34,2.85,0,3.41,1.66,3.41,4.13v4.68h-1.79v-4.84c0-1.54-.28-2.46-2.13-2.46s-2.23.9-2.23,2.46v4.84h-1.82Z"/><path d="M348.8,453.33c0-2.37.81-4.46,3.7-4.46,1.71,0,2.58.61,2.95,1.19v-4.38h1.78v12h-1l-.41-1.24c-.3.59-1.27,1.36-3.32,1.36C349.65,457.8,348.8,455.71,348.8,453.33Zm6.67,0c0-1.67-.36-2.93-2.43-2.93s-2.39,1.19-2.39,2.93.41,3,2.37,3S355.47,455.12,355.47,453.33Z"/><path d="M334.19,530.62h3.9c2.67,0,3.73,1.08,3.73,2.5a2,2,0,0,1-1.33,2.18,2.42,2.42,0,0,1,1.64,2.4c0,1.52-.92,2.9-4,2.9h-4Zm4.06,4.26c1.6,0,1.88-.73,1.88-1.4,0-.83-.32-1.44-2-1.44h-2.24v2.84Zm0,4.32c1.84,0,2.16-.66,2.16-1.51,0-1.33-1.06-1.48-2.12-1.48h-2.34v3Z"/><path d="M343.12,536.61c0-2.1.83-4.1,4-4.1s4,2,4,4.1-.85,4.1-4,4.1S343.12,538.73,343.12,536.61Zm6.23,0c0-1.48-.38-2.74-2.27-2.74s-2.26,1.24-2.26,2.74.41,2.75,2.25,2.75S349.35,538.16,349.35,536.61Z"/><path d="M352,536.61c0-2.1.83-4.1,4-4.1s4,2,4,4.1-.86,4.1-4,4.1S352,538.73,352,536.61Zm6.22,0c0-1.48-.37-2.74-2.26-2.74s-2.26,1.24-2.26,2.74.4,2.75,2.24,2.75S358.26,538.16,358.26,536.61Z"/><path d="M361.27,529.58h1.67v11h-1.67Z"/><path d="M364.27,536.6c0-2.14.81-4.09,4-4.09,2.94,0,3.77,2.25,3.57,4.76H366a2,2,0,0,0,2.22,2.16c1.32,0,1.75-.64,1.9-1.27h1.75c-.14,1.35-1.08,2.55-3.59,2.55C365.07,540.71,364.27,538.73,364.27,536.6Zm5.85-.66s0,0,0,0,0,0,0,0a1.87,1.87,0,0,0-2-2.11c-1.56,0-2,1-2.09,2.14Z"/><path d="M372.88,538.26c0-1.46,1-2.13,3.32-2.35l2.51-.25c0-1.15-.47-1.82-2.07-1.82s-1.89.59-1.89,1.59h-1.62c0-1.65.68-2.93,3.49-2.93,3.26,0,3.73,1.4,3.73,3.56v4.53h-.91l-.34-1.2a3.63,3.63,0,0,1-3.13,1.31C374.25,540.71,372.88,540,372.88,538.26Zm5.83-1.09v-.25l-2.26.25c-1.39.16-1.86.45-1.86,1.08s.63,1.15,1.8,1.15A2.09,2.09,0,0,0,378.71,537.17Z"/><path d="M381.76,532.62h.91l.37,1.12c.27-.54,1.11-1.23,2.92-1.23,2.62,0,3.13,1.53,3.13,3.79v4.3h-1.65v-4.44c0-1.42-.25-2.26-1.95-2.26s-2.06.82-2.06,2.26v4.44h-1.67Z"/><path d="M334.19,495.22h3.9c2.67,0,3.73,1.08,3.73,2.49a2,2,0,0,1-1.33,2.19,2.41,2.41,0,0,1,1.64,2.4c0,1.51-.92,2.9-4,2.9h-4Zm4.06,4.26c1.6,0,1.88-.74,1.88-1.41s-.32-1.43-2-1.43h-2.24v2.84Zm0,4.32c1.84,0,2.16-.66,2.16-1.52,0-1.32-1.06-1.48-2.12-1.48h-2.34v3Z"/><path d="M343.12,501.21c0-2.11.83-4.1,4-4.1s4,2,4,4.1-.85,4.1-4,4.1S343.12,503.33,343.12,501.21Zm6.23,0c0-1.48-.38-2.75-2.27-2.75s-2.26,1.25-2.26,2.75.41,2.74,2.25,2.74S349.35,502.75,349.35,501.21Z"/><path d="M352,501.21c0-2.11.83-4.1,4-4.1s4,2,4,4.1-.86,4.1-4,4.1S352,503.33,352,501.21Zm6.22,0c0-1.48-.37-2.75-2.26-2.75s-2.26,1.25-2.26,2.75.4,2.74,2.24,2.74S358.26,502.75,358.26,501.21Z"/><path d="M361.27,494.17h1.67v11h-1.67Z"/><path d="M364.27,501.19c0-2.13.81-4.08,4-4.08,2.94,0,3.77,2.24,3.57,4.75H366a2,2,0,0,0,2.22,2.17c1.32,0,1.75-.64,1.9-1.28h1.75c-.14,1.36-1.08,2.56-3.59,2.56C365.07,505.31,364.27,503.33,364.27,501.19Zm5.85-.65s0,0,0,0,0,0,0,0a1.86,1.86,0,0,0-2-2.11c-1.56,0-2,1-2.09,2.14Z"/><path d="M372.88,502.86c0-1.46,1-2.14,3.32-2.35l2.51-.25c0-1.16-.47-1.83-2.07-1.83s-1.89.59-1.89,1.59l-1.62,0c0-1.65.68-2.93,3.49-2.93,3.26,0,3.73,1.4,3.73,3.55v4.54h-.91l-.34-1.2a3.66,3.66,0,0,1-3.13,1.31C374.25,505.31,372.88,504.54,372.88,502.86Zm5.83-1.09v-.25l-2.26.25c-1.39.16-1.86.45-1.86,1.08s.63,1.15,1.8,1.15A2.09,2.09,0,0,0,378.71,501.77Z"/><path d="M381.76,497.22h.91l.37,1.12c.27-.55,1.11-1.23,2.92-1.23,2.62,0,3.13,1.52,3.13,3.79v4.3h-1.65v-4.44c0-1.42-.25-2.27-1.95-2.27s-2.06.83-2.06,2.27v4.44h-1.67Z"/><path d="M372.62,567.07h3.9c2.66,0,3.73,1.07,3.73,2.49a2,2,0,0,1-1.33,2.18,2.43,2.43,0,0,1,1.64,2.41c0,1.51-.92,2.9-4,2.9h-4Zm4.05,4.25c1.61,0,1.89-.73,1.89-1.4,0-.83-.33-1.43-2-1.43h-2.25v2.83Zm0,4.32c1.84,0,2.15-.65,2.15-1.51,0-1.33-1.06-1.48-2.12-1.48h-2.34v3Z"/><path d="M381.55,573.05c0-2.1.83-4.1,4-4.1s4,2,4,4.1-.85,4.11-4,4.11S381.55,575.18,381.55,573.05Zm6.22,0c0-1.48-.37-2.74-2.26-2.74s-2.26,1.25-2.26,2.74.41,2.75,2.25,2.75S387.77,574.6,387.77,573.05Z"/><path d="M390.81,574.75V570.4h-1.14v-1l1.14-.35v-2h1.65v2h2.09v1.34h-2v4.35c0,.75.31,1.1,2,1v1.34C391.92,577.27,390.81,576.64,390.81,574.75Z"/><path d="M395.63,566h1.63v4c.32-.58,1-1.11,2.55-1.11,2.6,0,3.13,1.48,3.13,3.78v4.32h-1.65v-4.48c0-1.5-.25-2.21-2-2.21s-2,.7-2,2.21l0,4.48h-1.63Z"/><path d="M410.17,568.47H407.3v-1.4h7.41v1.4h-2.87v8.58h-1.67Z"/><path d="M414.58,569.06h.89l.39,1.11a2.65,2.65,0,0,1,2.57-1.22h.27v1.48c-.16,0-.31,0-.45,0-1.67,0-2,.92-2,2.22v4.43h-1.67Z"/><path d="M419.46,573.44v-4.38h1.64v4.51c0,1.43.26,2.18,2,2.18s2-.81,2-2.26v-4.43h1.68v8h-.92l-.34-1.16c-.3.58-1.14,1.27-2.93,1.27C420,577.16,419.46,575.71,419.46,573.44Z"/><path d="M428.13,573c0-2.14.81-4.09,4-4.09,2.95,0,3.77,2.25,3.57,4.76h-5.83a2,2,0,0,0,2.21,2.17c1.33,0,1.75-.64,1.9-1.28h1.75c-.14,1.35-1.08,2.56-3.59,2.56C428.92,577.16,428.13,575.18,428.13,573Zm5.84-.66s0,0,0,0,0,0,0,0a1.86,1.86,0,0,0-2-2.1c-1.56,0-2,1-2.09,2.13Z"/><circle class="cls-6" cx="318.1" cy="501.56" r="6.77"/><circle class="cls-14" cx="318.1" cy="499.48" r="6.77"/><circle class="cls-6" cx="318.1" cy="536.96" r="6.77"/><circle class="cls-15" cx="318.1" cy="534.88" r="6.77"/><circle class="cls-6" cx="451.38" cy="574.45" r="6.77"/><circle class="cls-16" cx="451.38" cy="572.36" r="6.77"/><rect class="cls-2" y="98.92" width="103.08" height="118.05" rx="8.31"/><path class="cls-3" d="M8.31,98.92H94.77a8.31,8.31,0,0,1,8.31,8.31v20a0,0,0,0,1,0,0H0a0,0,0,0,1,0,0v-20A8.31,8.31,0,0,1,8.31,98.92Z"/><line class="cls-4" y1="127.23" x2="103.08" y2="127.23"/><path d="M9.42,108.41h2l2.48,8.87,2.68-8.87h2.21l2.66,8.87,2.5-8.87h1.88L22.5,119.27H20.26l-2.67-8.81L15,119.27H12.72Z"/><path d="M26.29,108.16c0-.89.53-1.11,1.34-1.11s1.29.22,1.29,1.11-.51,1.08-1.29,1.08S26.29,109,26.29,108.16Zm.43,2.42h1.8v8.69h-1.8Z"/><path d="M30.24,110.58h1l.4,1.22c.29-.59,1.21-1.34,3.18-1.34,2.85,0,3.41,1.67,3.41,4.13v4.68h-1.8v-4.84c0-1.54-.27-2.46-2.12-2.46s-2.24.9-2.24,2.46v4.84H30.24Z"/><path d="M39.5,114.93c0-2.38.82-4.47,3.7-4.47a3.3,3.3,0,0,1,3,1.19v-4.38h1.78v12H47l-.4-1.24c-.31.6-1.28,1.36-3.33,1.36C40.35,119.39,39.5,117.3,39.5,114.93Zm6.67,0c0-1.68-.35-2.94-2.42-2.94s-2.4,1.19-2.4,2.94.41,3,2.38,3S46.17,116.71,46.17,114.93Z"/><path d="M49.36,114.93c0-2.29.9-4.47,4.31-4.47S58,112.64,58,114.93s-.94,4.46-4.33,4.46S49.36,117.23,49.36,114.93Zm6.77,0c0-1.62-.41-3-2.46-3s-2.46,1.36-2.46,3,.44,3,2.44,3S56.13,116.61,56.13,114.93Z"/><path d="M58.47,110.58h2l1.67,7,2.05-7h1.78l2.16,7,1.76-7h2l-2.61,8.69H67.1L65,112.47l-2,6.8H61Z"/><path d="M44,182.84h1.72V187h4.9v-4.2H52.3v10H50.57v-4.39h-4.9v4.39H44Z"/><path d="M53.83,188.82c0-2.14.82-4.09,4-4.09,2.94,0,3.77,2.25,3.57,4.76H55.57a2,2,0,0,0,2.21,2.17c1.33,0,1.75-.64,1.9-1.28h1.75c-.14,1.35-1.08,2.55-3.59,2.55C54.63,192.93,53.83,191,53.83,188.82Zm5.85-.66s0,0,0,0,0,0,0,0a1.86,1.86,0,0,0-2-2.1c-1.56,0-2,1-2.09,2.13Z"/><path d="M62.35,182.61c0-.81.48-1,1.23-1s1.18.2,1.18,1-.47,1-1.18,1S62.35,183.41,62.35,182.61Zm.39,2.23h1.65v8H62.74Z"/><path d="M65.43,193.37h1.75c.08.92.34,1.48,2.31,1.48s2.16-.56,2.16-1c0-.64-.88-.78-2.09-1-1.82-.31-4-.4-4-1.82,0-.69.54-1.07,1.35-1.27a2.16,2.16,0,0,1-1.2-2c0-1.62.7-2.9,3.92-2.9h3.51v.8L72,186a1.91,1.91,0,0,1,.89,1.8c0,1.65-.65,2.8-3.62,2.8a12.43,12.43,0,0,1-1.38-.11c-.63.08-.67.27-.67.44,0,.38.65.44,2.41.67s3.75.48,3.75,2.17c0,1.18-.83,2.45-3.93,2.45S65.43,195.15,65.43,193.37Zm5.74-5.68c0-.85-.31-1.48-1.89-1.48s-1.87.61-1.87,1.48.33,1.63,1.89,1.63S71.17,188.66,71.17,187.69Z"/><path d="M74.3,181.8h1.64v4c.31-.58,1-1.11,2.54-1.11,2.6,0,3.14,1.48,3.14,3.77v4.32H80v-4.47c0-1.5-.25-2.22-1.95-2.22s-2,.71-2,2.22l0,4.47H74.3Z"/><path d="M83.42,190.53v-4.35H82.28v-1l1.14-.34v-2h1.65v2h2.09v1.34h-2v4.35c0,.75.31,1.09,2,1v1.34C84.53,193,83.42,192.42,83.42,190.53Z"/><circle class="cls-6" cx="102.56" cy="190.22" r="6.77"/><circle class="cls-17" cx="102.56" cy="188.14" r="6.77"/><path d="M46,149.52h1.81l2.28,8.16,2.46-8.16h2L57,157.68l2.3-8.16H61l-3,10H55.94l-2.44-8.09-2.42,8.09H49Z"/><path d="M61.49,149.29c0-.81.48-1,1.23-1s1.19.2,1.19,1-.47,1-1.19,1S61.49,150.09,61.49,149.29Zm.39,2.23h1.65v8H61.88Z"/><path d="M64.81,155.51c0-2.18.75-4.1,3.4-4.1a3,3,0,0,1,2.71,1.09v-4h1.64v11h-.9l-.38-1.13c-.28.54-1.17,1.24-3.06,1.24C65.59,159.61,64.81,157.7,64.81,155.51Zm6.13,0c0-1.54-.33-2.7-2.23-2.7s-2.2,1.1-2.2,2.7.37,2.73,2.18,2.73S70.94,157.15,70.94,155.51Z"/><path d="M74.61,157.21v-4.35H73.48v-1l1.13-.34v-2h1.66v2h2.09v1.34h-2v4.35c0,.75.31,1.09,2,1v1.34C75.72,159.72,74.61,159.1,74.61,157.21Z"/><path d="M79.43,148.48h1.64v4c.31-.58,1-1.11,2.54-1.11,2.6,0,3.13,1.48,3.13,3.77v4.32H85.09V155c0-1.5-.25-2.22-2-2.22s-2,.71-2,2.22l0,4.47H79.43Z"/><circle class="cls-6" cx="102.56" cy="156.9" r="6.77"/><circle class="cls-18" cx="102.56" cy="154.82" r="6.77"/><rect class="cls-2" x="60.39" y="267.6" width="132.24" height="219.05" rx="8.31"/><path class="cls-3" d="M68.71,267.6H184.32a8.31,8.31,0,0,1,8.31,8.31v20a0,0,0,0,1,0,0H60.39a0,0,0,0,1,0,0v-20A8.31,8.31,0,0,1,68.71,267.6Z"/><line class="cls-4" x1="60.39" y1="295.91" x2="192.63" y2="295.91"/><path d="M70.49,282.52c0-3,1-5.54,5-5.54,3.57,0,4.91,2,4.91,4.25H78.48a2.65,2.65,0,0,0-3-2.71c-2.56,0-3.1,1.78-3.1,4s.54,4,3.1,4c2.12,0,2.89-1.12,3-2.73H80.4c0,2.39-1.33,4.29-4.91,4.29C71.44,288.07,70.49,285.49,70.49,282.52Z"/><path d="M81.78,284v-4.76h1.78v4.9c0,1.56.29,2.38,2.16,2.38s2.22-.89,2.22-2.46v-4.82h1.83V288h-1l-.37-1.25c-.32.63-1.24,1.37-3.19,1.37C82.34,288.07,81.78,286.49,81.78,284Z"/><path d="M91.52,279.27h1l.42,1.2c.27-.58,1.1-1.32,2.8-1.32H96v1.61c-.17,0-.34,0-.49,0-1.82,0-2.18,1-2.18,2.4V288H91.52Z"/><path d="M97,279.27h1l.42,1.2a2.9,2.9,0,0,1,2.8-1.32h.29v1.61c-.17,0-.34,0-.49,0-1.82,0-2.17,1-2.17,2.4V288H97Z"/><path d="M101.75,283.59c0-2.32.88-4.44,4.34-4.44,3.21,0,4.11,2.44,3.89,5.17h-6.35a2.2,2.2,0,0,0,2.41,2.36c1.44,0,1.9-.69,2.07-1.39H110c-.15,1.48-1.17,2.78-3.9,2.78C102.61,288.07,101.75,285.92,101.75,283.59Zm6.36-.71s0,0,0,0,0,0,0,0a2,2,0,0,0-2.19-2.29c-1.7,0-2.19,1.05-2.27,2.32Z"/><path d="M111.46,279.27h1l.41,1.22c.28-.6,1.2-1.34,3.17-1.34,2.85,0,3.41,1.66,3.41,4.12V288h-1.8v-4.83c0-1.55-.27-2.46-2.12-2.46s-2.24.9-2.24,2.46V288h-1.82Z"/><path d="M121.1,285.46v-4.73h-1.24v-1.09l1.24-.37v-2.18h1.8v2.18h2.27v1.46H123v4.73c0,.81.34,1.19,2.22,1.1V288C122.3,288.19,121.1,287.51,121.1,285.46Z"/><path d="M130.21,283.08v-6h1.88V283c0,2.24.51,3.43,2.73,3.43s2.75-1.19,2.75-3.43v-5.91h1.88v6c0,3.55-1.32,5-4.63,5S130.21,286.63,130.21,283.08Z"/><path d="M140.79,284.87h1.78c0,1.17.8,1.76,2.38,1.76,1.24,0,2.07-.42,2.07-1.1s-1-1-2.5-1.31c-1.86-.36-3.56-.8-3.56-2.43s1.25-2.64,3.8-2.64,3.82,1.07,3.82,3.1h-1.7c-.07-1.18-.73-1.69-2.17-1.69s-2,.39-2,1.08,1,.93,2.41,1.22c2,.39,3.63.73,3.63,2.58,0,1.58-1.53,2.63-3.82,2.63C142.16,288.07,140.79,287,140.79,284.87Z"/><path d="M149.83,283.59c0-2.32.88-4.44,4.34-4.44,3.21,0,4.11,2.44,3.89,5.17h-6.35a2.21,2.21,0,0,0,2.41,2.36c1.44,0,1.9-.69,2.07-1.39h1.9c-.15,1.48-1.17,2.78-3.9,2.78C150.7,288.07,149.83,285.92,149.83,283.59Zm6.36-.71s0,0,0,0,0,0,0,0a2,2,0,0,0-2.19-2.29c-1.69,0-2.18,1.05-2.27,2.32Z"/><path d="M159.55,279.27h1l.42,1.2c.27-.58,1.1-1.32,2.8-1.32H164v1.61c-.17,0-.34,0-.49,0-1.82,0-2.18,1-2.18,2.4V288h-1.81Z"/><path d="M105.27,351.53H107v8.57h3.79v1.41h-5.51Z"/><path d="M111.48,359.17c0-1.47,1-2.14,3.32-2.36l2.51-.25c0-1.15-.47-1.82-2.08-1.82s-1.88.59-1.88,1.59l-1.62,0c0-1.66.68-2.94,3.49-2.94,3.26,0,3.73,1.41,3.73,3.56v4.54H118l-.34-1.2a3.68,3.68,0,0,1-3.14,1.31C112.85,361.62,111.48,360.85,111.48,359.17Zm5.83-1.09v-.25l-2.26.25c-1.39.15-1.86.45-1.86,1.07s.62,1.16,1.79,1.16A2.1,2.1,0,0,0,117.31,358.08Z"/><path d="M119.94,358.67h1.64c0,1.08.73,1.62,2.18,1.62,1.14,0,1.9-.39,1.9-1s-.92-.94-2.29-1.2c-1.71-.33-3.27-.74-3.27-2.23s1.15-2.44,3.49-2.44,3.51,1,3.51,2.86h-1.56c-.06-1.09-.67-1.56-2-1.56s-1.79.36-1.79,1,.89.85,2.21,1.12c1.84.36,3.34.67,3.34,2.37,0,1.45-1.4,2.42-3.51,2.42C121.2,361.62,119.94,360.65,119.94,358.67Z"/><path d="M128.56,359.22v-4.36h-1.14v-1l1.14-.35v-2h1.65v2h2.09v1.34h-2v4.36c0,.74.31,1.09,2,1v1.34C129.67,361.73,128.56,361.1,128.56,359.22Z"/><path d="M137.15,351.53h2.2l5.14,7.73v-7.73h1.72v10h-2.12l-5.23-7.8v7.8h-1.71Z"/><path d="M147.72,359.17c0-1.47,1-2.14,3.32-2.36l2.51-.25c-.05-1.15-.47-1.82-2.08-1.82s-1.88.59-1.88,1.59l-1.62,0c0-1.66.68-2.94,3.49-2.94,3.26,0,3.73,1.41,3.73,3.56v4.54h-.91l-.34-1.2a3.68,3.68,0,0,1-3.14,1.31C149.09,361.62,147.72,360.85,147.72,359.17Zm5.83-1.09v-.25l-2.26.25c-1.39.15-1.86.45-1.86,1.07s.63,1.16,1.8,1.16A2.1,2.1,0,0,0,153.55,358.08Z"/><path d="M156.6,353.52h.91l.37,1a2.53,2.53,0,0,1,2.45-1.14,2.14,2.14,0,0,1,2.2,1.24,2.45,2.45,0,0,1,2.48-1.24c2.18,0,2.63,1.53,2.63,3.4v4.7H166v-4.79c0-1.12-.21-1.9-1.48-1.9s-1.52.76-1.52,1.9v4.79h-1.68v-4.79c0-1.12-.2-1.9-1.48-1.9s-1.53.76-1.53,1.9v4.79H156.6Z"/><path d="M168.85,357.5c0-2.14.81-4.09,4-4.09,2.95,0,3.78,2.25,3.58,4.76h-5.84a2,2,0,0,0,2.22,2.17c1.32,0,1.74-.64,1.9-1.28h1.75c-.14,1.36-1.08,2.56-3.59,2.56C169.65,361.62,168.85,359.64,168.85,357.5Zm5.85-.66s0,0,0,0,0,0,0,0a1.86,1.86,0,0,0-2-2.1c-1.56,0-2,1-2.09,2.13Z"/><circle class="cls-6" cx="192.11" cy="358.91" r="6.77"/><circle class="cls-19" cx="192.11" cy="356.82" r="6.77"/><path d="M141.89,383.81h6.94v1.4h-5.24V388h4.75v1.39h-4.75v3h5.24v1.41h-6.94Z"/><path d="M150.19,385.8h.91l.37,1a2.53,2.53,0,0,1,2.45-1.14,2.13,2.13,0,0,1,2.2,1.24,2.46,2.46,0,0,1,2.48-1.24c2.18,0,2.64,1.53,2.64,3.4v4.7h-1.69V389c0-1.12-.2-1.9-1.48-1.9s-1.51.76-1.51,1.9v4.79h-1.69V389c0-1.12-.2-1.9-1.48-1.9s-1.53.76-1.53,1.9v4.79h-1.67Z"/><path d="M162.4,391.45c0-1.47,1-2.14,3.32-2.36l2.51-.25c0-1.15-.47-1.82-2.07-1.82s-1.89.59-1.89,1.59h-1.62c0-1.65.68-2.93,3.49-2.93,3.26,0,3.73,1.41,3.73,3.56v4.54H169l-.34-1.2a3.66,3.66,0,0,1-3.13,1.31C163.77,393.9,162.4,393.13,162.4,391.45Zm5.83-1.09v-.25l-2.26.25c-1.39.15-1.85.45-1.85,1.07s.62,1.16,1.79,1.16A2.1,2.1,0,0,0,168.23,390.36Z"/><path d="M170.86,383.57c0-.81.49-1,1.24-1s1.18.2,1.18,1-.47,1-1.18,1S170.86,384.37,170.86,383.57Zm.39,2.23h1.66v8h-1.66Z"/><path d="M174.5,382.76h1.66v11H174.5Z"/><circle class="cls-6" cx="192.11" cy="391.19" r="6.77"/><circle class="cls-20" cx="192.11" cy="389.1" r="6.77"/><path d="M94.5,418.17h1.72v10H94.5Z"/><path d="M97.6,425.31h1.64c0,1.08.73,1.62,2.18,1.62,1.14,0,1.91-.39,1.91-1s-.92-.94-2.3-1.2c-1.71-.33-3.27-.74-3.27-2.23s1.15-2.44,3.49-2.44,3.51,1,3.51,2.86H103.2c-.06-1.09-.67-1.56-2-1.56s-1.8.36-1.8,1,.89.85,2.22,1.12c1.84.36,3.33.67,3.33,2.37,0,1.45-1.4,2.42-3.5,2.42C98.87,428.26,97.6,427.29,97.6,425.31Z"/><path d="M110,418.17h1.72v8.57h3.79v1.41H110Z"/><path d="M115.82,424.16c0-2.11.83-4.11,4-4.11s4,2,4,4.11-.86,4.1-4,4.1S115.82,426.28,115.82,424.16Zm6.23,0c0-1.49-.38-2.75-2.26-2.75s-2.27,1.25-2.27,2.75.41,2.74,2.25,2.74S122.05,425.7,122.05,424.16Z"/><path d="M124.51,428.69h1.74c.08.92.35,1.49,2.31,1.49s2.17-.57,2.17-1c0-.64-.89-.78-2.09-1-1.83-.31-4-.4-4-1.82,0-.69.55-1.06,1.36-1.26a2.15,2.15,0,0,1-1.2-2c0-1.62.7-2.9,3.91-2.9h3.51v.8l-1.12.33a1.89,1.89,0,0,1,.89,1.79c0,1.65-.66,2.81-3.62,2.81-.39,0-1-.07-1.39-.11-.62.08-.67.26-.67.43,0,.38.66.44,2.42.68s3.74.48,3.74,2.16c0,1.19-.83,2.45-3.93,2.45S124.51,430.47,124.51,428.69Zm5.74-5.67c0-.86-.32-1.48-1.89-1.48s-1.87.6-1.87,1.48.32,1.62,1.88,1.62S130.25,424,130.25,423Z"/><path d="M133,428.69h1.74c.08.92.35,1.49,2.31,1.49s2.17-.57,2.17-1c0-.64-.89-.78-2.09-1-1.82-.31-4-.4-4-1.82,0-.69.55-1.06,1.36-1.26a2.15,2.15,0,0,1-1.2-2c0-1.62.7-2.9,3.91-2.9h3.51v.8l-1.12.33a1.89,1.89,0,0,1,.89,1.79c0,1.65-.66,2.81-3.62,2.81-.39,0-1-.07-1.39-.11-.62.08-.67.26-.67.43,0,.38.66.44,2.42.68s3.74.48,3.74,2.16c0,1.19-.83,2.45-3.93,2.45S133,430.47,133,428.69Zm5.74-5.67c0-.86-.32-1.48-1.89-1.48s-1.87.6-1.87,1.48.33,1.62,1.88,1.62S138.76,424,138.76,423Z"/><path d="M141.4,424.14c0-2.14.81-4.09,4-4.09,2.94,0,3.77,2.25,3.57,4.76h-5.84a2,2,0,0,0,2.22,2.17c1.32,0,1.75-.64,1.9-1.28H149c-.14,1.36-1.08,2.56-3.59,2.56C142.2,428.26,141.4,426.28,141.4,424.14Zm5.85-.65s0,0,0,0,0,0,0,0a1.86,1.86,0,0,0-2-2.1c-1.56,0-2,1-2.09,2.14Z"/><path d="M150,424.16c0-2.19.75-4.11,3.4-4.11a3,3,0,0,1,2.72,1.1v-4h1.63v11h-.9l-.38-1.14c-.28.55-1.17,1.25-3.05,1.25C150.8,428.26,150,426.34,150,424.16Zm6.13,0c0-1.55-.33-2.7-2.23-2.7s-2.2,1.09-2.2,2.7.38,2.73,2.19,2.73S156.15,425.79,156.15,424.16Z"/><path d="M159.2,423.44h4.59v1.37H159.2Z"/><path d="M165.44,418.17h1.71v10h-1.71Z"/><path d="M169,420.16h.91l.37,1.13c.26-.55,1.11-1.24,2.92-1.24,2.62,0,3.13,1.53,3.13,3.79v4.31h-1.65V423.7c0-1.42-.25-2.26-1.95-2.26s-2.06.83-2.06,2.26v4.45H169Z"/><circle class="cls-6" cx="192.11" cy="425.55" r="6.77"/><circle class="cls-21" cx="192.11" cy="423.46" r="6.77"/><path d="M119.41,452.53h1.71v10h-1.71Z"/><path d="M122.51,459.67h1.64c0,1.08.73,1.62,2.18,1.62,1.14,0,1.91-.39,1.91-1s-.92-.94-2.3-1.2c-1.71-.33-3.27-.73-3.27-2.23s1.15-2.43,3.49-2.43,3.51,1,3.51,2.85h-1.56c-.06-1.09-.67-1.56-2-1.56s-1.79.36-1.79,1,.89.86,2.22,1.12c1.84.36,3.33.67,3.33,2.37,0,1.45-1.4,2.42-3.51,2.42C123.78,462.62,122.51,461.65,122.51,459.67Z"/><path d="M137.62,452.53h2.32l3.74,10h-1.82l-.67-1.95h-4.9l-.72,1.95h-1.79Zm3.13,6.78-2-5.67-2,5.67Z"/><path d="M143.85,458.52c0-2.19.75-4.1,3.4-4.1a3,3,0,0,1,2.71,1.09v-4h1.64v11h-.9l-.38-1.14c-.28.55-1.17,1.25-3,1.25C144.63,462.62,143.85,460.7,143.85,458.52Zm6.13,0c0-1.55-.33-2.7-2.23-2.7s-2.2,1.09-2.2,2.7.37,2.73,2.18,2.73S150,460.16,150,458.52Z"/><path d="M153.22,454.53h.9l.38,1a2.52,2.52,0,0,1,2.45-1.13,2.11,2.11,0,0,1,2.19,1.23,2.48,2.48,0,0,1,2.48-1.23c2.19,0,2.64,1.52,2.64,3.4v4.69h-1.68v-4.79c0-1.12-.21-1.9-1.49-1.9s-1.51.76-1.51,1.9v4.79H157.9v-4.79c0-1.12-.21-1.9-1.48-1.9s-1.53.76-1.53,1.9v4.79h-1.67Z"/><path d="M165.33,452.29c0-.81.48-1,1.23-1s1.19.2,1.19,1-.47,1-1.19,1S165.33,453.09,165.33,452.29Zm.39,2.24h1.65v8h-1.65Z"/><path d="M169,454.53h.91l.37,1.12c.27-.55,1.11-1.23,2.92-1.23,2.62,0,3.13,1.52,3.13,3.79v4.3h-1.65v-4.44c0-1.42-.25-2.27-1.95-2.27s-2.06.83-2.06,2.27v4.44H169Z"/><circle class="cls-6" cx="192.11" cy="459.91" r="6.77"/><circle class="cls-22" cx="192.11" cy="457.83" r="6.77"/><path d="M104.57,318.21h6.78v1.4h-5.08v2.79H111v1.39h-4.71v4.4h-1.7Z"/><path d="M112.05,318c0-.81.49-1,1.23-1s1.19.2,1.19,1-.47,1-1.19,1S112.05,318.77,112.05,318Zm.39,2.23h1.65v8h-1.65Z"/><path d="M115.68,320.2h.89l.39,1.11a2.67,2.67,0,0,1,2.58-1.22h.26v1.48c-.16,0-.31,0-.45,0-1.67,0-2,.92-2,2.22v4.43h-1.67Z"/><path d="M119.94,325.35h1.64c0,1.08.73,1.62,2.18,1.62,1.14,0,1.9-.39,1.9-1s-.92-.94-2.29-1.2c-1.71-.33-3.27-.74-3.27-2.23s1.15-2.44,3.49-2.44,3.51,1,3.51,2.86h-1.56c-.06-1.09-.67-1.56-2-1.56s-1.79.36-1.79,1,.89.85,2.21,1.12c1.84.36,3.34.67,3.34,2.37,0,1.45-1.4,2.42-3.51,2.42C121.2,328.3,119.94,327.33,119.94,325.35Z"/><path d="M128.56,325.9v-4.36h-1.14v-1l1.14-.35v-2h1.65v2h2.09v1.34h-2v4.36c0,.74.31,1.09,2,1v1.34C129.67,328.41,128.56,327.78,128.56,325.9Z"/><path d="M137.15,318.21h2.2l5.14,7.73v-7.73h1.72v10h-2.12l-5.23-7.8v7.8h-1.71Z"/><path d="M147.72,325.85c0-1.47,1-2.14,3.32-2.36l2.51-.25c-.05-1.15-.47-1.82-2.08-1.82s-1.88.59-1.88,1.59L148,323c0-1.66.68-2.94,3.49-2.94,3.26,0,3.73,1.41,3.73,3.56v4.54h-.91l-.34-1.2a3.68,3.68,0,0,1-3.14,1.31C149.09,328.3,147.72,327.53,147.72,325.85Zm5.83-1.09v-.25l-2.26.25c-1.39.15-1.86.45-1.86,1.07s.62,1.16,1.79,1.16A2.1,2.1,0,0,0,153.55,324.76Z"/><path d="M156.6,320.2h.91l.37,1a2.53,2.53,0,0,1,2.45-1.14,2.14,2.14,0,0,1,2.2,1.24,2.45,2.45,0,0,1,2.48-1.24c2.18,0,2.63,1.53,2.63,3.4v4.7H166V323.4c0-1.12-.21-1.9-1.48-1.9s-1.52.76-1.52,1.9v4.79h-1.68V323.4c0-1.12-.2-1.9-1.48-1.9s-1.53.76-1.53,1.9v4.79H156.6Z"/><path d="M168.85,324.18c0-2.14.81-4.09,4-4.09,2.95,0,3.78,2.25,3.58,4.76h-5.84A2,2,0,0,0,172.8,327c1.32,0,1.74-.64,1.9-1.28h1.75c-.14,1.36-1.08,2.56-3.59,2.56C169.65,328.3,168.85,326.32,168.85,324.18Zm5.85-.66s0,0,0,0,0,0,0,0a1.86,1.86,0,0,0-2-2.1c-1.56,0-2,1-2.09,2.13Z"/><circle class="cls-6" cx="192.11" cy="325.59" r="6.77"/><circle class="cls-23" cx="192.11" cy="323.5" r="6.77"/><path class="cls-2" d="M543.46,412c-1.86,0-2.26,1.25-2.26,2.74s.4,2.75,2.24,2.75,2.28-1.2,2.28-2.75S545.34,412,543.46,412Z"/><path class="cls-2" d="M537.54,381.09c1.88,0,2.28-1.21,2.28-2.75s-.37-2.74-2.26-2.74-2.26,1.24-2.26,2.74S535.71,381.09,537.54,381.09Z"/><path class="cls-2" d="M522.39,377.65s0,0,0,0a1.86,1.86,0,0,0-2-2.11c-1.56,0-2,1-2.09,2.14h4.1S522.41,377.67,522.39,377.65Z"/><path class="cls-2" d="M562.5,414.11v-1.17a3.1,3.1,0,0,0-.28,1.17Z"/><path class="cls-2" d="M562.5,416.58v-1.14h-.29A2.89,2.89,0,0,0,562.5,416.58Z"/><path class="cls-2" d="M555.22,381.07c1.86,0,2.25-1.09,2.25-2.73s-.33-2.7-2.23-2.7-2.2,1.09-2.2,2.7S553.41,381.07,555.22,381.07Z"/><path class="cls-2" d="M560.48,414.77c0-1.6.45-3.1,2-3.75V355.78H511.77a4.15,4.15,0,0,1-4.16-4.15V329.74a4.15,4.15,0,0,1,4.16-4.15H562.5V307.36h-71v27.1a6.77,6.77,0,0,1,6.25,6.75,7.18,7.18,0,0,1-.09,1,7.06,7.06,0,0,1,.09,1,6.76,6.76,0,0,1-6.25,6.74v19.84a6.76,6.76,0,0,1,6.25,6.74,6.05,6.05,0,0,0,0,2.08,6.76,6.76,0,0,1-6.25,6.74v49.18a8.31,8.31,0,0,0,8.32,8.31H562.5V418.54C560.92,417.88,560.48,416.37,560.48,414.77Zm-49.25-32.33c-3,0-4.46-1.2-4.49-3.68h1.72c.06,1.47,1,2.2,2.73,2.2,1.6,0,2.4-.48,2.4-1.43s-.55-1.16-2.67-1.59c-2.88-.61-3.88-1.35-3.88-2.86,0-1.9,1.42-2.84,4-2.84s4.1,1.2,4.11,3.51h-1.7c-.08-1.43-.84-2.07-2.48-2.07s-2.23.42-2.23,1.34c0,.76.58,1.09,2.78,1.57,2.85.61,3.77,1.31,3.77,2.86C515.27,381.32,513.76,382.44,511.23,382.44Zm9.32,0c-3.21,0-4-2-4-4.12s.81-4.08,4-4.08c3,0,3.77,2.25,3.57,4.76h-5.83a2,2,0,0,0,2.21,2.16c1.33,0,1.75-.64,1.9-1.28h1.75C524,381.24,523.07,382.44,520.55,382.44ZM529.1,381c1.32,0,1.79-.66,1.9-1.81h1.7c0,2-1.11,3.24-3.56,3.24-3.15,0-4-2-4-4.1s.85-4.1,3.94-4.1c2.43,0,3.59,1.29,3.59,3.29H531c-.11-1.23-.61-1.93-1.93-1.93-1.72,0-2.2,1.18-2.2,2.72S527.33,381,529.1,381Zm8.46-6.77c3.1,0,4,2,4,4.1s-.86,4.1-4,4.1-3.94-2-3.94-4.1S534.43,374.24,537.56,374.24Zm-2.46,44.62a12.42,12.42,0,0,1-1.39-.1v-1.37a5.5,5.5,0,0,0,.94.08c1.34,0,1.62-.6,1.62-1.56V408.8H538v7C538,417.89,537.44,418.86,535.1,418.86Zm8.34,0c-3.13,0-3.94-2-3.94-4.11s.82-4.1,4-4.1,4,2,4,4.1S546.56,418.89,543.44,418.89Zm3.11-43.26c-1.7,0-2,.82-2,2.26v4.44h-1.67v-8h.9l.38,1.12c.26-.54,1.1-1.23,2.91-1.23,2.62,0,3.14,1.53,3.14,3.79v4.3H548.5v-4.44C548.5,376.47,548.25,375.63,546.55,375.63Zm3.8,43.15h-1.66v-8h1.66Zm-.81-9.22c-.75,0-1.24-.2-1.24-1s.49-1,1.24-1,1.18.2,1.18,1S550.25,409.56,549.54,409.56Zm5.2-35.32a3,3,0,0,1,2.71,1.09v-4h1.64v11h-.91l-.37-1.14c-.28.55-1.17,1.25-3.06,1.25-2.63,0-3.41-1.92-3.41-4.1S552.09,374.24,554.74,374.24Zm4.52,44.54h-1.65v-4.45c0-1.42-.25-2.26-2-2.26s-2.06.83-2.06,2.26v4.45h-1.67v-8h.91l.37,1.13c.27-.55,1.11-1.24,2.92-1.24,2.62,0,3.13,1.53,3.13,3.79Z"/><path class="cls-3" d="M562.5,299.49c-2.3,0-3.3-.72-3.3-2.58v-4.73H558v-1.09l1.24-.37v-2.17H561v2.17h1.5V279.06H499.79a8.31,8.31,0,0,0-8.32,8.31v20h71Zm-60.19,0a12.42,12.42,0,0,1-1.51-.1V297.9a6.5,6.5,0,0,0,1,.08c1.46,0,1.77-.64,1.77-1.7v-7.73h1.86l0,7.65C505.47,298.44,504.86,299.49,502.31,299.49Zm9.08,0c-3.41,0-4.29-2.16-4.29-4.47s.9-4.46,4.31-4.46,4.31,2.17,4.31,4.46S514.78,299.53,511.39,299.53Zm7.51-.12h-1.8v-8.69h1.8Zm-.88-10c-.81,0-1.34-.22-1.34-1.09s.53-1.1,1.34-1.1,1.29.22,1.29,1.1S518.8,289.38,518,289.38Zm10.59,10h-1.8v-4.84c0-1.54-.27-2.46-2.12-2.46s-2.24.9-2.24,2.46v4.84h-1.82v-8.69h1l.4,1.22c.29-.59,1.21-1.34,3.18-1.34,2.85,0,3.41,1.66,3.41,4.12Zm9.68,0h-1.82v-9.34h-3.12v-1.52h8.06v1.52h-3.12Zm6.61.12c-3.49,0-4.36-2.16-4.36-4.48s.88-4.45,4.35-4.45c3.2,0,4.1,2.44,3.88,5.18h-6.34a2.2,2.2,0,0,0,2.41,2.35c1.44,0,1.9-.69,2.07-1.39h1.9C548.65,298.22,547.63,299.53,544.9,299.53Zm10.77-.12-2.41-3.5-2.42,3.5h-2.21l3.65-4.5-3.41-4.19H551l2.29,3.16,2.32-3.16h2l-3.4,4.19,3.65,4.5Z"/><path class="cls-3" d="M511.41,292.08c-2,0-2.46,1.35-2.46,3s.44,3,2.44,3,2.48-1.31,2.48-3S513.46,292.08,511.41,292.08Z"/><path class="cls-3" d="M546.91,294.32s0,0,0,0a2,2,0,0,0-2.19-2.29c-1.7,0-2.19,1.05-2.28,2.32h4.47S546.92,294.33,546.91,294.32Z"/><path class="cls-3" d="M561.05,296.91c0,.69.25,1.06,1.45,1.11v-5.84h-1.45Z"/><path d="M503.59,288.55v7.73c0,1.06-.31,1.7-1.77,1.7a6.5,6.5,0,0,1-1-.08v1.49a12.42,12.42,0,0,0,1.51.1c2.55,0,3.16-1.05,3.16-3.29l0-7.65Z"/><path d="M511.41,290.6c-3.41,0-4.31,2.17-4.31,4.46s.88,4.47,4.29,4.47,4.33-2.14,4.33-4.47S514.78,290.6,511.41,290.6Zm0,7.45c-2,0-2.44-1.34-2.44-3s.44-3,2.46-3,2.46,1.37,2.46,3S513.43,298.05,511.39,298.05Z"/><path d="M518,287.19c-.81,0-1.34.22-1.34,1.1s.53,1.09,1.34,1.09,1.29-.22,1.29-1.09S518.8,287.19,518,287.19Z"/><rect x="517.1" y="290.72" width="1.8" height="8.69"/><path d="M525.2,290.6c-2,0-2.89.75-3.18,1.34l-.4-1.22h-1v8.69h1.82v-4.84c0-1.56.39-2.46,2.24-2.46s2.12.92,2.12,2.46v4.84h1.8v-4.69C528.61,292.26,528.05,290.6,525.2,290.6Z"/><polygon points="541.41 288.55 533.35 288.55 533.35 290.07 536.47 290.07 536.47 299.41 538.29 299.41 538.29 290.07 541.41 290.07 541.41 288.55"/><path d="M546.91,296.74c-.17.7-.63,1.39-2.07,1.39a2.2,2.2,0,0,1-2.41-2.35h6.34c.22-2.74-.68-5.18-3.88-5.18-3.47,0-4.35,2.12-4.35,4.45s.87,4.48,4.36,4.48c2.73,0,3.75-1.31,3.91-2.79ZM544.72,292a2,2,0,0,1,2.19,2.29s0,0,0,0,0,0,0,0h-4.47C542.53,293.06,543,292,544.72,292Z"/><polygon points="557.61 290.72 555.57 290.72 553.25 293.88 550.96 290.72 548.87 290.72 552.28 294.91 548.63 299.41 550.84 299.41 553.26 295.91 555.67 299.41 557.86 299.41 554.22 294.91 557.61 290.72"/><path d="M561,288.55h-1.8v2.17l-1.24.37v1.09h1.24v4.73c0,1.86,1,2.58,3.3,2.58V298c-1.2,0-1.45-.42-1.45-1.11v-4.73h1.45v-1.46H561Z"/><path d="M511.5,376.59c-2.2-.48-2.78-.81-2.78-1.57,0-.92.69-1.34,2.23-1.34s2.4.64,2.48,2.07h1.7c0-2.31-1.43-3.51-4.11-3.51s-4,.94-4,2.84c0,1.51,1,2.25,3.88,2.86,2.12.43,2.67.76,2.67,1.59s-.8,1.43-2.4,1.43c-1.77,0-2.67-.73-2.73-2.2h-1.72c0,2.48,1.5,3.68,4.49,3.68,2.53,0,4-1.12,4-3C515.27,377.9,514.35,377.2,511.5,376.59Z"/><path d="M520.49,381.16a2,2,0,0,1-2.21-2.16h5.83c.2-2.51-.62-4.76-3.57-4.76-3.18,0-4,1.95-4,4.08s.79,4.12,4,4.12c2.52,0,3.45-1.2,3.59-2.56h-1.75C522.24,380.52,521.82,381.16,520.49,381.16Zm-.11-5.63a1.86,1.86,0,0,1,2,2.11s0,0,0,0,0,0,0,0h-4.1C518.37,376.5,518.82,375.53,520.38,375.53Z"/><path d="M529.07,375.6c1.32,0,1.82.7,1.93,1.93h1.7c0-2-1.16-3.29-3.59-3.29-3.09,0-3.94,2-3.94,4.1s.82,4.1,4,4.1c2.45,0,3.56-1.28,3.56-3.24H531c-.11,1.15-.58,1.81-1.9,1.81-1.77,0-2.23-1.17-2.23-2.69S527.35,375.6,529.07,375.6Z"/><path d="M537.54,382.44c3.12,0,4-2,4-4.1s-.86-4.1-4-4.1-4,2-4,4.1S534.41,382.44,537.54,382.44Zm0-6.84c1.89,0,2.26,1.26,2.26,2.74s-.4,2.75-2.28,2.75-2.24-1.24-2.24-2.75S535.71,375.6,537.56,375.6Z"/><path d="M548.5,382.33h1.66V378c0-2.26-.52-3.79-3.14-3.79-1.81,0-2.65.69-2.91,1.23l-.38-1.12h-.9v8h1.67v-4.44c0-1.44.35-2.26,2-2.26s2,.84,2,2.26Z"/><path d="M554.75,382.44c1.89,0,2.78-.7,3.06-1.25l.37,1.14h.91v-11h-1.64v4a3,3,0,0,0-2.71-1.09c-2.65,0-3.4,1.92-3.4,4.1S552.12,382.44,554.75,382.44Zm.49-6.8c1.9,0,2.23,1.16,2.23,2.7s-.39,2.73-2.25,2.73S553,380,553,378.34,553.41,375.64,555.24,375.64Z"/><path d="M536.27,408.8v7.11c0,1-.28,1.56-1.62,1.56a5.5,5.5,0,0,1-.94-.08v1.37a12.42,12.42,0,0,0,1.39.1c2.34,0,2.9-1,2.9-3v-7Z"/><path d="M543.46,410.68c-3.14,0-4,2-4,4.1s.81,4.11,3.94,4.11,4-2,4-4.11S546.56,410.68,543.46,410.68Zm0,6.85c-1.84,0-2.24-1.23-2.24-2.75s.4-2.74,2.26-2.74,2.26,1.26,2.26,2.74S545.31,417.53,543.44,417.53Z"/><rect x="548.69" y="410.79" width="1.65" height="7.98"/><path d="M549.54,407.55c-.75,0-1.24.2-1.24,1s.49,1,1.24,1,1.18-.2,1.18-1S550.25,407.55,549.54,407.55Z"/><path d="M556.13,410.68c-1.81,0-2.65.69-2.92,1.24l-.37-1.13h-.91v8h1.67v-4.45c0-1.43.36-2.26,2.06-2.26s2,.84,2,2.26v4.45h1.65v-4.31C559.26,412.21,558.75,410.68,556.13,410.68Z"/><path d="M560.48,414.77c0,1.6.44,3.11,2,3.77v-2a2.89,2.89,0,0,1-.29-1.14h.29v-1.33h-.28a3.1,3.1,0,0,1,.28-1.17V411C560.93,411.67,560.48,413.17,560.48,414.77Z"/><path class="cls-6" d="M497.72,343.29a7.06,7.06,0,0,0-.09-1,6.76,6.76,0,0,1-13.36,0,7.06,7.06,0,0,0-.09,1,6.77,6.77,0,0,0,6.77,6.77c.18,0,.35,0,.52,0A6.76,6.76,0,0,0,497.72,343.29Z"/><path class="cls-24" d="M491,348a6.76,6.76,0,0,0,6.68-5.72,7.18,7.18,0,0,0,.09-1,6.77,6.77,0,0,0-6.25-6.75l-.52,0a6.77,6.77,0,0,0-6.77,6.77,7.18,7.18,0,0,0,.09,1A6.76,6.76,0,0,0,491,348Z"/><path class="cls-6" d="M497.72,378.69a7.18,7.18,0,0,0-.09-1,6.76,6.76,0,0,1-13.36,0,7.18,7.18,0,0,0-.09,1,6.77,6.77,0,0,0,6.77,6.77,4.41,4.41,0,0,0,.52,0A6.76,6.76,0,0,0,497.72,378.69Z"/><path class="cls-25" d="M491,383.38a6.77,6.77,0,0,0,6.68-5.73,7.18,7.18,0,0,0,.09-1,6.76,6.76,0,0,0-6.25-6.74,4.41,4.41,0,0,0-.52,0,6.77,6.77,0,0,0-6.77,6.77,7.18,7.18,0,0,0,.09,1A6.77,6.77,0,0,0,491,383.38Z"/><path class="cls-2" d="M537.12,341.17s0,0,0,0a2,2,0,0,0-2.19-2.3c-1.69,0-2.19,1.06-2.27,2.33h4.46S537.14,341.19,537.12,341.17Z"/><path class="cls-26" d="M537.12,341.17s0,0,0,0a2,2,0,0,0-2.19-2.3c-1.69,0-2.19,1.06-2.27,2.33h4.46S537.14,341.19,537.12,341.17Z"/><path class="cls-2" d="M557.19,344.91c2,0,2.47-1.31,2.47-3s-.4-3-2.46-3-2.46,1.36-2.46,3S555.18,344.91,557.19,344.91Z"/><path class="cls-27" d="M557.19,344.91c2,0,2.47-1.31,2.47-3s-.4-3-2.46-3-2.46,1.36-2.46,3S555.18,344.91,557.19,344.91Z"/><path class="cls-2" d="M507.61,329.74v21.89a4.15,4.15,0,0,0,4.16,4.15H562.5V325.59H511.77A4.15,4.15,0,0,0,507.61,329.74Zm49.59,7.72c3.38,0,4.31,2.17,4.31,4.46s-.93,4.46-4.32,4.46-4.3-2.15-4.3-4.46S553.79,337.46,557.2,337.46Zm-9.19,0c2.65,0,3.9,1.4,3.9,3.58h-1.85c-.12-1.34-.66-2.11-2.1-2.11-1.87,0-2.39,1.29-2.39,3s.51,2.92,2.42,2.92c1.44,0,2-.71,2.07-2h1.85c0,2.14-1.2,3.53-3.87,3.53-3.42,0-4.32-2.15-4.32-4.46S544.65,337.46,548,337.46Zm-7.53-3.19h1.81v12h-1.81Zm-5.38,3.19c3.21,0,4.11,2.44,3.89,5.17h-6.35a2.2,2.2,0,0,0,2.41,2.36c1.44,0,1.9-.7,2.07-1.39H539c-.15,1.48-1.17,2.78-3.9,2.78-3.5,0-4.36-2.15-4.36-4.48S531.64,337.46,535.1,337.46Zm-18.71-2.06,2.48,8.88,2.68-8.88h2.21l2.66,8.88,2.5-8.88h1.88l-3.29,10.86h-2.24l-2.67-8.8-2.63,8.8h-2.24l-3.31-10.86Z"/><path class="cls-28" d="M507.61,329.74v21.89a4.15,4.15,0,0,0,4.16,4.15H562.5V325.59H511.77A4.15,4.15,0,0,0,507.61,329.74Z"/><polygon points="519.97 346.26 522.6 337.46 525.27 346.26 527.51 346.26 530.8 335.4 528.91 335.4 526.42 344.28 523.76 335.4 521.55 335.4 518.87 344.28 516.39 335.4 514.42 335.4 517.73 346.26 519.97 346.26"/><path d="M535.12,346.38c2.73,0,3.75-1.3,3.9-2.78h-1.9c-.17.69-.63,1.39-2.07,1.39a2.2,2.2,0,0,1-2.41-2.36H539c.22-2.73-.68-5.17-3.89-5.17-3.46,0-4.34,2.12-4.34,4.44S531.62,346.38,535.12,346.38Zm-.19-7.52a2,2,0,0,1,2.19,2.3s0,0,0,0,0,0,0,0h-4.46C532.74,339.92,533.24,338.86,534.93,338.86Z"/><rect x="540.48" y="334.27" width="1.82" height="12"/><path d="M548,346.38c2.67,0,3.87-1.39,3.87-3.53h-1.85c-.12,1.26-.63,2-2.07,2-1.91,0-2.42-1.27-2.42-2.92s.52-3,2.39-3c1.44,0,2,.77,2.1,2.11h1.85c0-2.18-1.25-3.58-3.9-3.58-3.36,0-4.29,2.15-4.29,4.46S544.62,346.38,548,346.38Z"/><path d="M557.19,346.38c3.39,0,4.32-2.14,4.32-4.46s-.93-4.46-4.31-4.46-4.31,2.17-4.31,4.46S553.78,346.38,557.19,346.38Zm0-7.45c2.06,0,2.46,1.38,2.46,3s-.44,3-2.47,3-2.45-1.34-2.45-3S555.18,338.93,557.2,338.93Z"/><line class="cls-4" x1="491.49" y1="306.84" x2="562.5" y2="306.84"/></g></g></svg>