<svg xmlns="http://www.w3.org/2000/svg" xmlns:xlink="http://www.w3.org/1999/xlink" viewBox="0 0 105.58 26.88"><defs><style>.cls-1{fill:#fff;}.cls-2{fill:url(#linear-gradient);}.cls-3{fill:#1c1c1c;}.cls-4{fill:url(#linear-gradient-2);}.cls-5{fill:url(#linear-gradient-3);}</style><linearGradient id="linear-gradient" x1="-1227.99" y1="203.51" x2="-1227.99" y2="196.68" gradientTransform="translate(1266.52 -195.68)" gradientUnits="userSpaceOnUse"><stop offset="0" stop-color="#1bcc62"/><stop offset="1" stop-color="#7df9af"/></linearGradient><linearGradient id="linear-gradient-2" x1="-1182.82" y1="221.56" x2="-1182.82" y2="214.73" gradientTransform="translate(1266.52 -195.68)" gradientUnits="userSpaceOnUse"><stop offset="0" stop-color="#ed2f54"/><stop offset="1" stop-color="#ff6187"/></linearGradient><linearGradient id="linear-gradient-3" x1="-1262.11" y1="221.56" x2="-1262.11" y2="214.73" gradientTransform="translate(1266.52 -195.68)" gradientUnits="userSpaceOnUse"><stop offset="0" stop-color="#2f53ea"/><stop offset="1" stop-color="#2fd2f6"/></linearGradient></defs><g id="Layer_2" data-name="Layer 2"><g id="Layer_1-2" data-name="Layer 1"><path class="cls-1" d="M6.28,10.84h4.15A1.61,1.61,0,0,1,12,12.45h0a1.61,1.61,0,0,1-1.61,1.6H6.28v8.3a1.81,1.81,0,0,1-1.81,1.81h0a1.81,1.81,0,0,1-1.81-1.81V4.9A2.12,2.12,0,0,1,4.78,2.77h9.28a1.61,1.61,0,0,1,1.6,1.61v.13a1.61,1.61,0,0,1-1.6,1.61H6.28Z"/><path class="cls-1" d="M21.89,2.77h.27a1.67,1.67,0,0,1,1.67,1.67V20.81h7.75a1.67,1.67,0,0,1,1.67,1.67h0a1.68,1.68,0,0,1-1.67,1.68H22.34A2.14,2.14,0,0,1,20.21,22V4.44A1.68,1.68,0,0,1,21.89,2.77Z"/><path class="cls-1" d="M46.8,24.43c-6.45,0-10.14-4.1-10.14-10.65V4.58a1.82,1.82,0,0,1,1.82-1.81h0a1.81,1.81,0,0,1,1.81,1.81v9.2c0,4.55,2.34,7.24,6.62,7.24s6.62-2.66,6.62-7.21V4.62a1.81,1.81,0,0,1,1.81-1.81h.07a1.81,1.81,0,0,1,1.81,1.81v9.32A10.44,10.44,0,0,1,46.8,24.43Z"/><path class="cls-1" d="M81.85,11.57c0-1.31,0-2.49,0-2.49l-7.45,7.25L66.84,9s0,1.2,0,2.69V22.35a1.81,1.81,0,0,1-1.81,1.81h0a1.81,1.81,0,0,1-1.81-1.81V4.1a1.33,1.33,0,0,1,1.32-1.33h0a1.38,1.38,0,0,1,.93.37l6.75,6.53,2.07,2.07s.83-.79,2.14-2.07L83.2,3.1a1.36,1.36,0,0,1,1-.38h0a1.33,1.33,0,0,1,1.28,1.33v18.3a1.81,1.81,0,0,1-1.81,1.81h0a1.81,1.81,0,0,1-1.81-1.81Z"/><path class="cls-1" d="M94.05,2.77h9.1a1.61,1.61,0,0,1,1.6,1.61v.13a1.61,1.61,0,0,1-1.6,1.61H95.54v4.62h4.37a1.6,1.6,0,0,1,1.6,1.6h0A1.61,1.61,0,0,1,99.91,14H95.54v6.86H104a1.61,1.61,0,0,1,1.6,1.61v.13a1.61,1.61,0,0,1-1.6,1.61H94.05A2.13,2.13,0,0,1,91.92,22V4.9A2.13,2.13,0,0,1,94.05,2.77Z"/><path class="cls-2" d="M38.53,7.83A3.42,3.42,0,1,1,42,4.41,3.42,3.42,0,0,1,38.53,7.83Z"/><path class="cls-3" d="M38.53,2a2.42,2.42,0,1,1-2.41,2.41A2.41,2.41,0,0,1,38.53,2m0-2A4.42,4.42,0,1,0,43,4.41,4.42,4.42,0,0,0,38.53,0Z"/><path class="cls-4" d="M83.7,25.88a3.41,3.41,0,1,1,3.42-3.41A3.41,3.41,0,0,1,83.7,25.88Z"/><path class="cls-3" d="M83.7,20.06a2.41,2.41,0,1,1-2.41,2.41,2.41,2.41,0,0,1,2.41-2.41m0-2a4.41,4.41,0,1,0,4.42,4.41,4.42,4.42,0,0,0-4.42-4.41Z"/><path class="cls-5" d="M4.41,25.88a3.41,3.41,0,1,1,3.42-3.41A3.41,3.41,0,0,1,4.41,25.88Z"/><path class="cls-3" d="M4.41,20.06A2.41,2.41,0,1,1,2,22.47a2.41,2.41,0,0,1,2.41-2.41m0-2a4.41,4.41,0,1,0,4.42,4.41,4.42,4.42,0,0,0-4.42-4.41Z"/></g></g></svg>