<svg xmlns="http://www.w3.org/2000/svg" viewBox="0 0 366.04 46.5"><defs><style>.cls-1{fill:#fff;}</style></defs><g id="Layer_2" data-name="Layer 2"><g id="Layer_1-2" data-name="Layer 1"><path class="cls-1" d="M161.82,17.56h8.54a3.3,3.3,0,0,1,3.3,3.3h0a3.3,3.3,0,0,1-3.3,3.3h-8.54V41.22a3.72,3.72,0,0,1-3.73,3.72h0a3.72,3.72,0,0,1-3.72-3.72V5.34A4.38,4.38,0,0,1,158.74,1h19.07a3.3,3.3,0,0,1,3.3,3.3v.28a3.29,3.29,0,0,1-3.3,3.3h-16Z"/><path class="cls-1" d="M193.91,1h.57a3.44,3.44,0,0,1,3.44,3.44V38.06h15.93a3.44,3.44,0,0,1,3.44,3.44h0a3.44,3.44,0,0,1-3.44,3.44h-19a4.38,4.38,0,0,1-4.38-4.37V4.4A3.44,3.44,0,0,1,193.91,1Z"/><path class="cls-1" d="M245.15,45.51c-13.27-.1-20.84-8.45-20.84-21.92V4.69A3.73,3.73,0,0,1,228,1h0a3.73,3.73,0,0,1,3.73,3.73v18.9c0,9.36,4.82,14.9,13.62,14.9S259,33,259,23.66V4.76A3.73,3.73,0,0,1,262.72,1h.14a3.73,3.73,0,0,1,3.73,3.73V23.92A21.48,21.48,0,0,1,245.15,45.51Z"/><path class="cls-1" d="M317.23,19.05c0-2.69.08-5.11.08-5.11L302,28.84l-15.6-15s.07,2.48.07,5.53V41.22a3.72,3.72,0,0,1-3.73,3.72h0A3.72,3.72,0,0,1,279,41.22V3.69A2.73,2.73,0,0,1,281.73,1h0a2.74,2.74,0,0,1,1.89.77l13.89,13.42,4.26,4.26,4.4-4.26L320,1.64a2.76,2.76,0,0,1,2-.78h0a2.73,2.73,0,0,1,2.62,2.73V41.22A3.71,3.71,0,0,1,321,44.94h0a3.72,3.72,0,0,1-3.73-3.72Z"/><path class="cls-1" d="M342.32,1H361a3.29,3.29,0,0,1,3.29,3.3v.28A3.29,3.29,0,0,1,361,7.84H345.39v9.51h9a3.3,3.3,0,0,1,3.3,3.3h0a3.3,3.3,0,0,1-3.3,3.3h-9V38.06h17.35a3.3,3.3,0,0,1,3.3,3.3v.29a3.29,3.29,0,0,1-3.3,3.29H342.32A4.37,4.37,0,0,1,338,40.57V5.34A4.38,4.38,0,0,1,342.32,1Z"/><path class="cls-1" d="M110.39,5.32a23.24,23.24,0,0,0-22.51-4l-28.46,10,34,11.94-34,12,28.46,10a23.24,23.24,0,0,0,22.51-4h0A23.26,23.26,0,0,0,110.39,5.32Z"/><path class="cls-1" d="M59.42,11.31,31,1.31a23.23,23.23,0,0,0-22.5,4h0a23.24,23.24,0,0,0,0,35.86h0a23.23,23.23,0,0,0,22.5,4l28.47-10-34-12Z"/></g></g></svg>