<svg xmlns="http://www.w3.org/2000/svg" viewBox="0 0 136.28 136.28"><defs><style>.cls-1{fill:#353535;}.cls-2{fill:#30d673;}.cls-3{fill:none;stroke:#30d673;stroke-linecap:round;stroke-miterlimit:10;stroke-width:2px;}</style></defs><g id="Layer_2" data-name="Layer 2"><g id="Layer_1-2" data-name="Layer 1"><rect class="cls-1" x="15" y="3.28" width="118" height="118" rx="16.21" transform="translate(5.2 -5.7) rotate(4.57)"/><path class="cls-2" d="M59,23.28a54,54,0,1,1-54,54,54.06,54.06,0,0,1,54-54m0-5a59,59,0,1,0,59,59,59,59,0,0,0-59-59Z"/><path class="cls-2" d="M59,37.28a40,40,0,0,1,34,61H25a40,40,0,0,1,34-61m0-5a45,45,0,0,0-36.72,71H95.72A45,45,0,0,0,59,32.28Z"/><circle class="cls-2" cx="59" cy="98.28" r="9"/><path class="cls-2" d="M64.3,101.11c2-2.62,18.18-34,18.18-34S56.8,91.34,54.83,94a5.94,5.94,0,1,0,9.47,7.16Z"/><circle class="cls-1" cx="59" cy="98.28" r="5"/><line class="cls-3" x1="26" y1="77.15" x2="30" y2="77.11"/><line class="cls-3" x1="27.66" y1="66.54" x2="31.5" y2="68.13"/><line class="cls-3" x1="32.17" y1="57.41" x2="35.79" y2="60.24"/><line class="cls-3" x1="39.06" y1="50.07" x2="42.33" y2="54.16"/><line class="cls-3" x1="48.39" y1="44.81" x2="50.01" y2="50.62"/><line class="cls-3" x1="58.97" y1="42.67" x2="59.03" y2="49.59"/><line class="cls-3" x1="70.21" y1="44.04" x2="67.39" y2="51.39"/><line class="cls-3" x1="80.08" y1="48.65" x2="74.54" y2="55.58"/><line class="cls-3" x1="87.97" y1="55.84" x2="80.07" y2="61.8"/><line class="cls-3" x1="93.73" y1="66.03" x2="83.11" y2="68.64"/><line class="cls-3" x1="96" y1="77.14" x2="84" y2="77.13"/></g></g></svg>