<svg xmlns="http://www.w3.org/2000/svg" viewBox="0 0 146.35 138.58"><defs><style>.cls-1{fill:#353535;}.cls-2{fill:#2f6aec;}</style></defs><g id="Layer_2" data-name="Layer 2"><g id="Layer_1-2" data-name="Layer 1"><rect class="cls-1" x="7.35" y="13.23" width="118" height="118" rx="16.21" transform="translate(-12.51 13.91) rotate(-10.95)"/><path class="cls-2" d="M146.35,54.7c0-8.13-10.19-15.85-25.81-20.63,3.6-15.92,2-28.59-5.06-32.64A11,11,0,0,0,109.87,0V5.61a5.79,5.79,0,0,1,2.86.65c3.4,2,4.88,9.39,3.73,19-.28,2.35-.73,4.83-1.28,7.36a121.39,121.39,0,0,0-15.9-2.73A122.31,122.31,0,0,0,88.87,17.32C97,9.74,104.69,5.58,109.9,5.58V0h0C103,0,94,4.91,84.89,13.42,75.77,5,66.76.1,59.88.1V5.68c5.18,0,12.86,4.13,21,11.67A117.76,117.76,0,0,0,70.57,29.84,116.4,116.4,0,0,0,54.64,32.6c-.57-2.51-1-4.94-1.3-7.26-1.17-9.57.28-17,3.66-19a5.56,5.56,0,0,1,2.88-.65V.13h0a11.16,11.16,0,0,0-5.66,1.4c-7,4.05-8.61,16.7-5,32.57C33.66,38.9,23.53,46.59,23.53,54.7S33.71,70.55,49.34,75.33c-3.61,15.92-2,28.59,5,32.65a11,11,0,0,0,5.64,1.4c6.88,0,15.89-4.91,25-13.42,9.11,8.46,18.12,13.32,25,13.32a11.21,11.21,0,0,0,5.66-1.4c7-4.06,8.61-16.7,5-32.57C136.21,70.52,146.35,62.81,146.35,54.7ZM113.75,38c-.92,3.23-2.08,6.56-3.38,9.89-1-2-2.1-4-3.28-6s-2.38-4-3.6-5.85C107,36.55,110.47,37.2,113.75,38ZM102.29,64.67c-2,3.38-4,6.58-6,9.56-3.73.33-7.51.5-11.31.5s-7.56-.17-11.27-.48c-2.08-3-4.1-6.15-6.06-9.51s-3.63-6.61-5.2-10c1.55-3.36,3.3-6.71,5.18-10s4-6.59,6-9.57c3.73-.32,7.51-.5,11.32-.5s7.56.18,11.26.48c2.08,3,4.11,6.16,6.06,9.51s3.63,6.61,5.21,10C105.89,58,104.16,61.39,102.29,64.67Zm8.08-3.26c1.35,3.36,2.51,6.71,3.46,10-3.28.8-6.74,1.47-10.32,2,1.23-1.93,2.46-3.91,3.61-5.93S109.35,63.41,110.37,61.41ZM85,88.12a101.36,101.36,0,0,1-7-8c2.25.1,4.55.18,6.88.18s4.68-.05,7-.18A97,97,0,0,1,85,88.12ZM66.36,73.38c-3.55-.53-7-1.18-10.26-2,.92-3.23,2.07-6.56,3.38-9.89,1,2,2.1,4,3.28,6S65.13,71.48,66.36,73.38Zm18.5-52.1a101.36,101.36,0,0,1,7,8c-2.25-.1-4.55-.17-6.88-.17s-4.68.05-7,.17A97,97,0,0,1,84.86,21.28ZM66.34,36C65.11,38,63.88,39.93,62.73,42s-2.23,4-3.25,6A104.75,104.75,0,0,1,56,38C59.3,37.23,62.76,36.55,66.34,36ZM43.68,67.37c-8.86-3.78-14.6-8.74-14.6-12.67S34.82,45.79,43.68,42c2.15-.92,4.51-1.75,6.93-2.52a120.7,120.7,0,0,0,5.64,15.24,117.49,117.49,0,0,0-5.56,15.17A73.34,73.34,0,0,1,43.68,67.37Zm13.47,35.78c-3.41-2-4.88-9.39-3.73-19,.27-2.35.72-4.83,1.27-7.36a120,120,0,0,0,15.9,2.73A122.36,122.36,0,0,0,81,92.08c-8.17,7.59-15.83,11.74-21,11.74A6,6,0,0,1,57.15,103.15Zm59.38-19.08c1.18,9.56-.27,17-3.65,19a5.58,5.58,0,0,1-2.88.65c-5.18,0-12.87-4.13-21-11.67A119,119,0,0,0,99.31,79.54a116.25,116.25,0,0,0,15.92-2.76A67.68,67.68,0,0,1,116.53,84.07Zm9.64-16.7c-2.15.93-4.51,1.75-6.93,2.53a120.25,120.25,0,0,0-5.64-15.25,117.49,117.49,0,0,0,5.56-15.17q3.72,1.17,7,2.55c8.86,3.78,14.59,8.74,14.59,12.67S135,63.61,126.17,67.37Z"/><circle class="cls-2" cx="84.91" cy="54.7" r="11.44"/></g></g></svg>