<svg xmlns="http://www.w3.org/2000/svg" viewBox="0 0 136.02 142.68"><defs><style>.cls-1{fill:#353535;}.cls-2{fill:#2f6aec;}</style></defs><g id="Layer_2" data-name="Layer 2"><g id="Layer_1-2" data-name="Layer 1"><rect class="cls-1" x="7.65" y="16" width="118" height="118" rx="16.21" transform="translate(16.24 -11.75) rotate(11.47)"/><path class="cls-2" d="M7.69,44a135.6,135.6,0,0,0,9.55,11.7A140.7,140.7,0,0,0,79.37,95c12.21,3.81,18.42,11.19,17,20.25-1.68,11-14.49,22.43-33,22.43a52.82,52.82,0,0,1-18.62-3.59C11.41,121.47,7.44,70.3,7.69,44M3.46,27.59S-6.42,120.07,43,138.76a57.6,57.6,0,0,0,20.39,3.92c36.89,0,55-40.73,17.46-52.45C24.24,72.58,3.46,27.59,3.46,27.59Z"/><path class="cls-2" d="M39.35,69.05S47.42,85.48,45,101c0,0,7.33-7.26,9-22.3A24.41,24.41,0,0,1,39.35,69.05Z"/><path class="cls-2" d="M8.08,81.81s8.13,10.4,20.47,11.4c0,0-7.41,6.47-18.34,2.34Z"/><path class="cls-2" d="M26.49,122.58s15.83,5.3,30-3.07c0,0-5,11.8-22.59,11.78Z"/><path class="cls-2" d="M133,116.6s-35.37,17.68-83.54-14.13c0,0,19.3,33.15,85.33,25.64C134.82,128.11,138.47,121.25,133,116.6Z"/><path class="cls-2" d="M78,15.61A79.61,79.61,0,0,0,95.58,55.8c3.12,3.8,4.13,7.4,2.84,10.14-1.39,2.94-5.24,4.84-9.79,4.84-6.44,0-12.8-3.68-17.47-10.11-7.45-10.25-3.18-25,1.7-35.49A103.65,103.65,0,0,1,78,15.61M82.63,0S49.88,39.88,67.11,63.61c6.3,8.66,14.47,12.17,21.52,12.17,12.26,0,21.12-10.61,10.81-23.16C78.56,27.2,82.63,0,82.63,0Z"/><path class="cls-2" d="M86.64,30.16s-1.26,10.08-7.08,16.52c0,0,5.61-1.14,11-7.6A13.57,13.57,0,0,1,86.64,30.16Z"/><path class="cls-2" d="M68.25,26.55s.61,7.3,6,11.53a10.3,10.3,0,0,1-9.21-4.51Z"/><path class="cls-2" d="M64.38,51.07s5.73,7.28,14.86,7.73c0,0-5.91,4-14.06-1.42Z"/><path class="cls-2" d="M115.62,80.74s-21.79-2.57-34.45-32c0,0-1.14,21.25,31.77,37.88C112.94,86.63,116.72,84.56,115.62,80.74Z"/></g></g></svg>