<svg xmlns="http://www.w3.org/2000/svg" viewBox="0 0 136.79 136.65"><defs><style>.cls-1{fill:#353535;}.cls-2{fill:#2f6aec;}.cls-3{fill:#999;}.cls-4{fill:none;stroke:#2f6aec;stroke-miterlimit:10;stroke-width:4px;}</style></defs><g id="Layer_2" data-name="Layer 2"><g id="Layer_1-2" data-name="Layer 1"><rect class="cls-1" x="11.13" y="7.65" width="118" height="118" rx="16.21" transform="matrix(0.98, 0.2, -0.2, 0.98, 14.65, -12.61)"/><path class="cls-2" d="M7,66.94c2.13,2,4.56,4.09,7.31,6.24A115.5,115.5,0,0,0,70,96.53c10.43,1.41,16.12,6.57,15.61,14.15-.69,10.09-12,21-29,21a44.78,44.78,0,0,1-8.72-.88C21,125.51,10.74,88.49,7,66.94M0,51.78s4.62,75.6,46.86,83.9a50,50,0,0,0,9.69,1c35.2,0,48.33-40.44,14.1-45.08C22.8,85.09,0,51.78,0,51.78Z"/><path class="cls-2" d="M34.45,80.2s8.71,12.1,8.88,24.85c0,0,4.89-6.83,4.2-19.13A19.9,19.9,0,0,1,34.45,80.2Z"/><path class="cls-2" d="M11.07,94.69s7.94,7.25,18,6.38a15.12,15.12,0,0,1-14.41,4.36Z"/><path class="cls-2" d="M31.39,124.93s13.44,2.11,23.7-6.54c0,0-2.4,10.15-16.54,12.52Z"/><path class="cls-2" d="M116.13,105.65s-26,19-69,0c0,0,20,24,72,9C119.13,114.65,121.13,108.65,116.13,105.65Z"/><path class="cls-3" d="M99.9,31.37l4.91-.45,1,10.21,2.08-5.22,6.28-.59L110,42.2l5.64,6.62-6.23.58-3.36-5.09.5,5.35-4.91.46Z"/><path class="cls-3" d="M119.79,46.88l-.68,1.62-2.78.26L114.59,30l4.93-.46.57,6.1a6.33,6.33,0,0,1,3.73-1.5c4.09-.37,5.4,3.38,5.69,6.56s-.59,7.14-5.36,7.59A5.2,5.2,0,0,1,119.79,46.88Zm4.69-5.7c-.16-1.7-.34-3.07-2.2-2.9s-1.83,1.62-1.67,3.26.39,3.14,2.28,3S124.64,42.9,124.48,41.18Z"/><path class="cls-4" d="M16.94,48.11c-1.5-16.89,19.91-16,20.17-23.06.27-4-2.23-5.07-5-4.81-3.21.3-4.78,1.57-4.24,7.43L15.29,28.84c-.94-10.19,2.89-17.44,16.08-18.67,13.54-1.26,18.86,5.36,19,13.44.31,13.21-21.22,15.49-20.73,20.86l.1,1.05,22.4-2.08,1,10.46L17.78,57.18Z"/><path class="cls-4" d="M55.83,31.13C54.71,19,56.83,7.81,73,6.31,89.28,4.79,93.43,15.39,94.57,27.6s-1,23.25-17.34,24.77S57,43.27,55.83,31.13ZM81.1,28.85c-.67-7.19-.86-12.31-7.14-11.72-6,.56-5.39,5.64-4.73,12.75.68,7.26,1,12.3,7,11.74C82.51,41,81.77,36,81.1,28.85Z"/><path class="cls-3" d="M54.93,65.52l3.56-.34,2.07,5.48,1-5.78,3.56-.34.8,8.36-2.49.24-.49-5.09-1,5.23-2.3.22-1.93-5,.49,5.11-2.49.24Z"/><path class="cls-3" d="M66.09,64.1c-.11-1.11.52-1.29,1.4-1.37s1.52,0,1.63,1.08-.51,1.3-1.39,1.39S66.2,65.2,66.09,64.1Zm.48,2L69,65.87l.64,6.67-2.46.23Z"/><path class="cls-3" d="M70.17,65.77l1.37-.14.48.78a2.66,2.66,0,0,1,2-1.15c2.35-.22,2.75,1.06,2.91,2.73l.37,3.81L74.87,72l-.36-3.73c-.08-.9-.28-1.08-.89-1s-.8.3-.72,1.18l.36,3.72-2.45.24Z"/><path class="cls-3" d="M77.28,63c-.1-1.12.52-1.29,1.4-1.38s1.53,0,1.63,1.09-.5,1.3-1.39,1.38S77.39,64.12,77.28,63Zm.49,2,2.46-.24.65,6.66-2.47.24Z"/><path class="cls-3" d="M82.19,66.59l-1.09.1L81,65.25l1-.62L81.94,64c-.17-1.82,1.11-2.43,3.46-2.45l.18,1.86c-1-.05-1.17.23-1.13.6l0,.34L86,64.24l.19,2-1.57.15.46,4.71-2.43.23Zm4.16-4.44c-.11-1.11.52-1.29,1.39-1.37s1.53,0,1.64,1.08-.51,1.3-1.4,1.39S86.45,63.25,86.35,62.15Zm.48,2,2.47-.23.64,6.66-2.47.24Z"/><path class="cls-3" d="M90.52,67.16c-.16-1.64.21-3.5,3.15-3.79C97.12,63,97.2,65.79,97.32,67l-4.45.43c.14.92.52,1.33,1.24,1.26s.91-.41.9-.86l2.42-.22c0,1.34-.79,2.44-3.08,2.65C91.36,70.58,90.67,68.79,90.52,67.16ZM94.84,66c-.16-.86-.44-1.15-1.15-1.08s-1,.37-.94,1.28Z"/><path class="cls-3" d="M98,66.45c-.15-1.57.15-3.51,2.15-3.7a3.06,3.06,0,0,1,1.95.38l-.29-3,2.44-.24.89,9.24-1.36.13-.5-.72a2.71,2.71,0,0,1-2,1.07C99,69.84,98.16,68.1,98,66.45Zm4.4-.42c-.08-.81-.14-1.49-1.1-1.4s-.9.75-.82,1.58.2,1.5,1.1,1.41S102.48,66.89,102.4,66Z"/><path class="cls-3" d="M111.33,66.13l-2.61.25-.18-1.89,2.61-.25-.23-2.39,2.34-.23.23,2.39,2.61-.25.18,1.89-2.61.26.23,2.37-2.34.23Z"/><path class="cls-3" d="M73.5,81.13c-.21-2.09.19-4.37,3.51-4.69,2.85-.27,4,1,4.12,2.54l-2.52.25c-.13-.56-.48-.92-1.41-.83-1.29.13-1.29,1.24-1.17,2.49s.32,2.35,1.61,2.23a1.38,1.38,0,0,0,1.21-1.44l-1.48.14L77.2,80l4-.38.47,4.92-1.53.15-.46-.88a2.36,2.36,0,0,1-2.06,1.25C74.5,85.38,73.7,83.22,73.5,81.13Z"/><path class="cls-3" d="M82.62,82.37l3.26-4.63-3.67.35-.2-2,6.56-.63.19,2-3.38,4.74,4-.38.19,2-6.72.65Z"/><path class="cls-3" d="M89.4,75c-.11-1.11.52-1.29,1.39-1.38s1.53,0,1.64,1.09-.51,1.3-1.4,1.38S89.5,76.14,89.4,75Zm.48,2,2.47-.24L93,83.47l-2.47.24Z"/><path class="cls-3" d="M93.47,76.7l1.37-.13.48.75a2.78,2.78,0,0,1,2-1.12c2.36-.22,3.13,1.61,3.28,3.18s-.14,3.51-2.15,3.7a3.09,3.09,0,0,1-2-.39l.29,3L94.36,86Zm4.64,2.92c-.08-.85-.17-1.5-1.07-1.41s-.92.73-.83,1.59.15,1.49,1.11,1.4S98.2,80.47,98.11,79.62Z"/><path class="cls-3" d="M101.24,76l1.37-.14.48.75a2.78,2.78,0,0,1,2-1.12c2.34-.22,3.12,1.62,3.27,3.18s-.14,3.51-2.15,3.7a3,3,0,0,1-2-.39l.29,3.06-2.43.23Zm4.64,2.91c-.08-.85-.17-1.5-1.07-1.41s-.92.73-.83,1.59.15,1.49,1.11,1.4S106,79.72,105.88,78.87Z"/><path class="cls-3" d="M109.11,78.55c-.16-1.64.21-3.5,3.15-3.79,3.45-.33,3.53,2.42,3.65,3.66l-4.45.43c.14.92.52,1.33,1.24,1.26s.91-.41.9-.86L116,79c0,1.34-.79,2.44-3.08,2.66C110,82,109.26,80.18,109.11,78.55Zm4.32-1.14c-.16-.86-.44-1.15-1.15-1.08s-1,.37-.94,1.28Z"/><path class="cls-3" d="M116.59,77.84c-.15-1.57.15-3.51,2.15-3.7a3.12,3.12,0,0,1,2,.38l-.29-3,2.44-.24.89,9.24-1.36.13-.5-.72a2.71,2.71,0,0,1-2,1.07C117.55,81.23,116.75,79.49,116.59,77.84Zm4.4-.42c-.08-.81-.14-1.49-1.09-1.4s-.91.75-.83,1.58.2,1.5,1.1,1.41S121.08,78.28,121,77.42Z"/></g></g></svg>