<svg xmlns="http://www.w3.org/2000/svg" viewBox="0 0 254.17 238.73"><defs><style>.cls-1{fill:#f23d63;}.cls-2{fill:#dd2f58;}.cls-3{fill:#b7294b;}.cls-4{fill:#30d673;}.cls-5{fill:#2bba65;}.cls-6{fill:#27a058;}.cls-7{fill:#2f6aec;}.cls-8{fill:#245ec6;}.cls-9{fill:#1c54a5;}.cls-10{fill:#1c1c1c;}</style></defs><g id="Layer_2" data-name="Layer 2"><g id="Layer_1-2" data-name="Layer 1"><rect class="cls-1" x="15.74" y="3.43" width="80.83" height="224.52" rx="10.68" transform="translate(-17.64 10.37) rotate(-9.13)"/><rect class="cls-2" x="21.32" y="73.34" width="80.83" height="154.17" rx="10.68" transform="translate(-23.08 11.7) rotate(-9.13)"/><rect class="cls-3" x="27.13" y="146.22" width="80.83" height="80.83" rx="10.68" transform="translate(-28.75 13.08) rotate(-9.13)"/><rect class="cls-4" x="69.31" y="16.05" width="80.83" height="224.52" rx="10.68" transform="translate(96 -39.96) rotate(35.87)"/><rect class="cls-5" x="48.7" y="79.73" width="80.83" height="154.17" rx="10.68" transform="translate(108.8 -22.47) rotate(35.87)"/><rect class="cls-6" x="27.21" y="146.11" width="80.83" height="80.83" rx="10.68" transform="matrix(0.81, 0.59, -0.59, 0.81, 122.13, -4.24)"/><rect class="cls-7" x="98.07" y="62.97" width="80.83" height="224.52" rx="10.68" transform="translate(289.53 10.71) rotate(80.87)"/><rect class="cls-8" x="63.34" y="103.73" width="80.83" height="154.17" rx="10.68" transform="translate(265.82 49.69) rotate(80.87)"/><rect class="cls-9" x="27.13" y="146.22" width="80.83" height="80.83" rx="10.68" transform="translate(241.1 90.34) rotate(80.87)"/><circle class="cls-10" cx="67.55" cy="186.63" r="11.97"/></g></g></svg>