<svg xmlns="http://www.w3.org/2000/svg" viewBox="0 0 145.44 140.8"><defs><style>.cls-1{fill:#353535;}.cls-10,.cls-2,.cls-3,.cls-5,.cls-6,.cls-7,.cls-8,.cls-9{fill:none;stroke-miterlimit:10;stroke-width:5px;}.cls-2{stroke:#f23d63;}.cls-3{stroke:#dd2f58;}.cls-4{fill:#dd2f58;}.cls-5{stroke:#30d673;}.cls-6{stroke:#27a058;}.cls-7{stroke:#2bba65;}.cls-8{stroke:#2f6aec;}.cls-9{stroke:#245ec6;}.cls-10{stroke:#1c54a5;}</style></defs><g id="Layer_2" data-name="Layer 2"><g id="Layer_1-2" data-name="Layer 1"><rect class="cls-1" x="11.11" y="11.69" width="118" height="118" rx="16.21" transform="matrix(0.95, -0.31, 0.31, 0.95, -18.38, 25.06)"/><path class="cls-2" d="M51.59,36.47l17.75,2.41a10.69,10.69,0,0,1,9.17,9.5l.35-.26L83.09,17A10.68,10.68,0,0,0,74,5L56.2,2.6a10.67,10.67,0,0,0-12,9.14L39.57,45.6A10.66,10.66,0,0,1,51.59,36.47Z"/><path class="cls-3" d="M34.64,81.73l.12-.82a10.68,10.68,0,0,1,12-9.14l.81.11.71-.53h0L76.67,49.78h0l1.84-1.4a10.69,10.69,0,0,0-9.17-9.5L51.59,36.47a10.66,10.66,0,0,0-12,9.13h0L34.64,81.73Z"/><polygon class="cls-4" points="32.46 97.76 32.34 98.66 32.46 97.76 32.46 97.76"/><path class="cls-5" d="M76.67,49.78a10.68,10.68,0,0,1,15,2l10.84,14.26a10.66,10.66,0,0,1-.26,13.24l.41.06,25-19a10.67,10.67,0,0,0,2-15L118.84,31.14a10.67,10.67,0,0,0-15-2l-25,19-.35.26Z"/><path class="cls-6" d="M42.38,110.81l.46.6a10.67,10.67,0,0,0,15,2l.61-.46Z"/><path class="cls-7" d="M102.47,66.08,91.63,51.82a10.68,10.68,0,0,0-15-2h0L48.3,71.35h0l-.71.53L63.8,74.09l38.41,5.23A10.66,10.66,0,0,0,102.47,66.08Z"/><path class="cls-6" d="M32.46,97.76l2.18-16h0l-.6.46a10.67,10.67,0,0,0-2,15l.46.61Z"/><path class="cls-8" d="M133.7,83.62l-31.08-4.24-.41-.06L63.8,74.09,47.59,71.88l-.81-.11L99.84,79A10.67,10.67,0,0,1,109,91l-2.41,17.75a10.68,10.68,0,0,1-12,9.14l-35.3-4.81h0l69.17,9.43a10.68,10.68,0,0,0,12-9.14l2.42-17.75A10.66,10.66,0,0,0,133.7,83.62Z"/><path class="cls-9" d="M64.53,74.19a10.69,10.69,0,0,1,9.14,12L71.25,104a10.67,10.67,0,0,1-12,9.14l35.3,4.81a10.68,10.68,0,0,0,12-9.14L109,91a10.67,10.67,0,0,0-9.13-12L46.78,71.77Z"/><path class="cls-10" d="M71.25,104l2.42-17.75a10.69,10.69,0,0,0-9.14-12L46.78,71.77a10.68,10.68,0,0,0-12,9.14l-.12.82-2.18,16-.12.9a10.66,10.66,0,0,0,9.14,12l.9.13,16,2.18.82.11h0A10.67,10.67,0,0,0,71.25,104ZM53.79,86.67a5.82,5.82,0,1,1-6.55,5A5.83,5.83,0,0,1,53.79,86.67Z"/></g></g></svg>