<svg xmlns="http://www.w3.org/2000/svg" xmlns:xlink="http://www.w3.org/1999/xlink" viewBox="0 0 427.24 334.38"><defs><style>.cls-1,.cls-4{fill:none;stroke-miterlimit:10;}.cls-1{stroke:#999;stroke-linecap:round;stroke-width:3px;}.cls-2{fill:#545556;}.cls-3{fill:#4a4b4c;}.cls-4{stroke:#2f3030;}.cls-5{opacity:0.45;}.cls-6{fill:url(#linear-gradient);}.cls-7{fill:url(#linear-gradient-2);}.cls-8{fill:url(#linear-gradient-3);}.cls-9{fill:url(#linear-gradient-4);}.cls-10{fill:url(#linear-gradient-5);}.cls-11{fill:url(#linear-gradient-6);}.cls-12{fill:url(#linear-gradient-7);}.cls-13{fill:url(#linear-gradient-8);}</style><linearGradient id="linear-gradient" x1="243.46" y1="101" x2="243.46" y2="87.46" gradientUnits="userSpaceOnUse"><stop offset="0" stop-color="#ca2e5d"/><stop offset="1" stop-color="#f23d63"/><stop offset="1" stop-color="#5e5f60"/></linearGradient><linearGradient id="linear-gradient-2" x1="243.46" y1="148.9" x2="243.46" y2="135.36" xlink:href="#linear-gradient"/><linearGradient id="linear-gradient-3" x1="420.48" y1="173.89" x2="420.48" y2="160.35" xlink:href="#linear-gradient"/><linearGradient id="linear-gradient-4" x1="102.56" y1="95.99" x2="102.56" y2="82.45" xlink:href="#linear-gradient"/><linearGradient id="linear-gradient-5" x1="102.56" y1="62.67" x2="102.56" y2="49.13" xlink:href="#linear-gradient"/><linearGradient id="linear-gradient-6" x1="171.36" y1="279.32" x2="171.36" y2="265.78" xlink:href="#linear-gradient"/><linearGradient id="linear-gradient-7" x1="171.36" y1="311.6" x2="171.36" y2="298.06" gradientUnits="userSpaceOnUse"><stop offset="0" stop-color="#1e56d4"/><stop offset="1" stop-color="#2f6aec"/></linearGradient><linearGradient id="linear-gradient-8" x1="171.36" y1="246" x2="171.36" y2="232.46" gradientUnits="userSpaceOnUse"><stop offset="0" stop-color="#309e64"/><stop offset="1" stop-color="#30d673"/></linearGradient></defs><g id="Layer_2" data-name="Layer 2"><g id="Layer_1-2" data-name="Layer 1"><path class="cls-1" d="M102.85,55.88c71.31,0,73.54,38,141.5,38"/><path class="cls-1" d="M171.35,272.38c38,0,39-130,72-130"/><rect class="cls-2" x="243.98" y="32.08" width="177.01" height="163.87" rx="8.31"/><path class="cls-3" d="M252.3,32.08H412.68A8.31,8.31,0,0,1,421,40.4v20a0,0,0,0,1,0,0H244a0,0,0,0,1,0,0v-20A8.31,8.31,0,0,1,252.3,32.08Z"/><line class="cls-4" x1="243.98" y1="60.39" x2="421" y2="60.39"/><path d="M267.31,41.57V52.43h-1.86v-8.6l-3.65,8.6h-1.87l-3.64-8.6v8.6h-1.85V41.57h2.76l3.16,7.4.51,1.41a14.26,14.26,0,0,1,.5-1.41l3.16-7.4Z"/><path d="M269.16,48.51V43.74h1.78v4.91c0,1.56.29,2.37,2.15,2.37s2.23-.88,2.23-2.46V43.74h1.83v8.69h-1l-.38-1.25c-.32.62-1.23,1.37-3.19,1.37C269.72,52.55,269.16,51,269.16,48.51Z"/><path d="M278.89,40.44h1.82v12h-1.82Z"/><path d="M283,49.94V45.2h-1.24V44.12l1.24-.38V41.57h1.8v2.17H287V45.2H284.8v4.74c0,.81.33,1.19,2.22,1.1V52.5C284.15,52.67,283,52,283,49.94Z"/><path d="M287.73,41.32c0-.88.52-1.1,1.34-1.1s1.29.22,1.29,1.1-.51,1.08-1.29,1.08S287.73,42.18,287.73,41.32Zm.42,2.42H290v8.69h-1.8Z"/><path d="M291.68,43.74h1L293,45c.34-.59,1.27-1.35,3.34-1.35,2.85,0,3.7,2.1,3.7,4.48s-.8,4.44-3.66,4.44a3.3,3.3,0,0,1-3-1.19v4.47h-1.78Zm6.58,4.37c0-1.77-.42-3-2.37-3s-2.44,1.19-2.44,3,.34,2.93,2.39,2.93S298.26,49.85,298.26,48.11Z"/><path d="M301.52,40.44h1.81v12h-1.81Z"/><path d="M305,53.16h1.8c.07.77.32,1.39,2.24,1.39s2.24-.9,2.24-2V51.45c-.39.61-1.17,1.1-2.77,1.1-2.83,0-3.41-1.58-3.41-4V43.74h1.78v4.91c0,1.54.29,2.37,2.14,2.37s2.26-.9,2.26-2.46V43.74H313V52.5c0,1.68-.61,3.44-4.06,3.44S305,54.62,305,53.16Z"/><path d="M318.9,41.57h2.4L326.89,50V41.57h1.87V52.43h-2.31L320.77,44v8.48H318.9Z"/><path d="M330.62,48.51V43.74h1.78v4.91c0,1.56.29,2.37,2.16,2.37s2.22-.88,2.22-2.46V43.74h1.83v8.69h-1l-.37-1.25c-.32.62-1.24,1.37-3.19,1.37C331.18,52.55,330.62,51,330.62,48.51Z"/><path d="M340.36,43.74h1l.41,1.12a2.75,2.75,0,0,1,2.66-1.23,2.33,2.33,0,0,1,2.4,1.34c.25-.61,1.05-1.34,2.69-1.34,2.38,0,2.87,1.66,2.87,3.69v5.11h-1.83V47.22c0-1.22-.22-2.07-1.61-2.07s-1.65.83-1.65,2.07v5.21h-1.83V47.22c0-1.22-.22-2.07-1.61-2.07s-1.67.83-1.67,2.07v5.21h-1.81Z"/><path d="M355.35,51.18,355,52.43h-1v-12h1.79V44.8c.37-.58,1.23-1.17,3-1.17,2.87,0,3.66,2.08,3.66,4.46s-.85,4.46-3.7,4.46C356.62,52.55,355.69,51.77,355.35,51.18Zm5.23-3.09c0-1.75-.43-2.94-2.43-2.94s-2.39,1.22-2.39,2.92.42,3,2.44,3S360.58,49.87,360.58,48.09Z"/><path d="M363.54,48.07c0-2.32.88-4.44,4.35-4.44,3.2,0,4.1,2.44,3.88,5.17h-6.34a2.2,2.2,0,0,0,2.41,2.36c1.44,0,1.9-.7,2.07-1.39h1.9c-.16,1.47-1.18,2.78-3.91,2.78C364.41,52.55,363.54,50.4,363.54,48.07Zm6.37-.71s0,0,0,0,0,0,0,0A2,2,0,0,0,367.72,45c-1.7,0-2.19,1.06-2.28,2.33Z"/><path d="M373.26,43.74h1l.42,1.21a2.89,2.89,0,0,1,2.8-1.32h.29v1.61c-.17,0-.34,0-.49,0-1.82,0-2.17,1-2.17,2.41v4.82h-1.82Z"/><path d="M377.89,49.34h1.78c0,1.18.8,1.77,2.38,1.77,1.24,0,2.07-.43,2.07-1.1s-1-1-2.5-1.31c-1.86-.36-3.56-.8-3.56-2.43s1.26-2.64,3.8-2.64,3.82,1.06,3.82,3.1H384c-.06-1.19-.73-1.7-2.17-1.7s-1.95.39-1.95,1.09,1,.93,2.41,1.22c2,.39,3.63.73,3.63,2.58,0,1.58-1.53,2.63-3.82,2.63C379.27,52.55,377.89,51.5,377.89,49.34Z"/><path d="M259.6,137.87h2.2l5.14,7.74v-7.74h1.72v10h-2.12l-5.23-7.79v7.79H259.6Z"/><path d="M270.37,144.25v-4.38H272v4.51c0,1.43.27,2.18,2,2.18s2-.81,2-2.26v-4.43h1.68v8h-.92l-.34-1.15c-.3.58-1.14,1.26-2.93,1.26C270.88,148,270.37,146.51,270.37,144.25Z"/><path d="M279.32,139.87h.9l.37,1a2.51,2.51,0,0,1,2.45-1.14,2.12,2.12,0,0,1,2.2,1.23,2.48,2.48,0,0,1,2.48-1.23c2.18,0,2.64,1.53,2.64,3.4v4.69h-1.69v-4.79c0-1.12-.2-1.9-1.48-1.9s-1.51.77-1.51,1.9v4.79H284v-4.79c0-1.12-.2-1.9-1.48-1.9s-1.53.77-1.53,1.9v4.79h-1.66Z"/><path d="M293.1,146.7l-.35,1.15h-.9v-11h1.64v4a3,3,0,0,1,2.71-1.08c2.63,0,3.37,1.92,3.37,4.1s-.78,4.1-3.4,4.1C294.27,148,293.41,147.24,293.1,146.7Zm4.8-2.84c0-1.61-.39-2.7-2.23-2.7s-2.2,1.13-2.2,2.69.39,2.75,2.25,2.75S297.9,145.5,297.9,143.86Z"/><path d="M300.62,143.85c0-2.14.81-4.09,4-4.09,2.94,0,3.77,2.24,3.57,4.76h-5.84a2,2,0,0,0,2.22,2.16c1.32,0,1.75-.64,1.9-1.28h1.75c-.14,1.36-1.08,2.56-3.59,2.56C301.42,148,300.62,146,300.62,143.85Zm5.85-.66s0,0,0,0,0,0,0,0a1.87,1.87,0,0,0-2-2.11c-1.56,0-2,1-2.09,2.14Z"/><path d="M309.55,139.87h.89l.39,1.11a2.67,2.67,0,0,1,2.58-1.22h.26v1.48l-.45,0c-1.67,0-2,.92-2,2.21v4.43h-1.67Z"/><path d="M259.6,89.87h2.2l5.14,7.74V89.87h1.72v10h-2.12l-5.23-7.79v7.79H259.6Z"/><path d="M270.37,96.25V91.87H272v4.51c0,1.43.27,2.18,2,2.18s2-.81,2-2.26V91.87h1.68v8h-.92l-.34-1.15c-.3.58-1.14,1.26-2.93,1.26C270.88,100,270.37,98.51,270.37,96.25Z"/><path d="M279.32,91.87h.9l.37,1A2.51,2.51,0,0,1,283,91.76a2.12,2.12,0,0,1,2.2,1.23,2.48,2.48,0,0,1,2.48-1.23c2.18,0,2.64,1.53,2.64,3.4v4.69h-1.69V95.06c0-1.12-.2-1.9-1.48-1.9s-1.51.77-1.51,1.9v4.79H284V95.06c0-1.12-.2-1.9-1.48-1.9s-1.53.77-1.53,1.9v4.79h-1.66Z"/><path d="M293.1,98.7l-.35,1.15h-.9v-11h1.64v4a3,3,0,0,1,2.71-1.08c2.63,0,3.37,1.92,3.37,4.1s-.78,4.1-3.4,4.1C294.27,100,293.41,99.24,293.1,98.7Zm4.8-2.84c0-1.61-.39-2.7-2.23-2.7s-2.2,1.13-2.2,2.69.39,2.75,2.25,2.75S297.9,97.5,297.9,95.86Z"/><path d="M300.62,95.85c0-2.14.81-4.09,4-4.09,2.94,0,3.77,2.24,3.57,4.76h-5.84a2,2,0,0,0,2.22,2.16c1.32,0,1.75-.64,1.9-1.28h1.75c-.14,1.36-1.08,2.56-3.59,2.56C301.42,100,300.62,98,300.62,95.85Zm5.85-.66s0,0,0,0,0,0,0,0a1.87,1.87,0,0,0-2-2.11c-1.56,0-2,1-2.09,2.14Z"/><path d="M309.55,91.87h.89l.39,1.11a2.67,2.67,0,0,1,2.58-1.22h.26v1.48c-.15,0-.31,0-.45,0-1.67,0-2,.92-2,2.21v4.43h-1.67Z"/><path d="M363.07,161.82h3.55c3.76,0,4.15,1.92,4.15,3.2,0,2.46-2,3-3.88,3l4.22,3.74H368.8l-4-3.91v3.91h-1.71Zm3.66,5c2,0,2.31-1,2.31-1.76s-.3-1.8-2.34-1.8h-1.92v3.56Z"/><path d="M371.69,167.79c0-2.13.81-4.08,4-4.08,2.95,0,3.77,2.24,3.57,4.75h-5.83a2,2,0,0,0,2.21,2.17c1.33,0,1.75-.64,1.9-1.28h1.75c-.14,1.36-1.07,2.56-3.59,2.56C372.48,171.91,371.69,169.93,371.69,167.79Zm5.84-.65s0,0,0,0,0,0,0,0a1.86,1.86,0,0,0-2-2.11c-1.56,0-2,1-2.09,2.14Z"/><path d="M380.2,169h1.63c0,1.08.74,1.63,2.19,1.63,1.14,0,1.9-.39,1.9-1s-.92-.93-2.29-1.2c-1.72-.33-3.28-.73-3.28-2.23s1.16-2.43,3.5-2.43,3.5,1,3.5,2.85h-1.56c-.06-1.09-.67-1.56-2-1.56s-1.79.36-1.79,1,.88.86,2.21,1.12c1.84.36,3.34.67,3.34,2.37,0,1.45-1.41,2.42-3.51,2.42C381.46,171.91,380.2,170.94,380.2,169Z"/><path d="M388.66,168.2v-4.38h1.64v4.5c0,1.44.26,2.19,2,2.19s2-.81,2-2.26v-4.43H396v8h-.92l-.35-1.15c-.29.57-1.14,1.26-2.93,1.26C389.18,171.91,388.66,170.46,388.66,168.2Z"/><path d="M397.61,160.78h1.67v11h-1.67Z"/><path d="M401.33,169.51v-4.35H400.2v-1l1.13-.34v-2H403v2h2.09v1.34H403v4.35c0,.75.31,1.09,2.05,1v1.34C402.44,172,401.33,171.4,401.33,169.51Z"/><circle class="cls-5" cx="243.46" cy="96.31" r="6.77"/><circle class="cls-6" cx="243.46" cy="94.23" r="6.77"/><circle class="cls-5" cx="243.46" cy="144.21" r="6.77"/><circle class="cls-7" cx="243.46" cy="142.13" r="6.77"/><circle class="cls-5" cx="420.48" cy="169.2" r="6.77"/><circle class="cls-8" cx="420.48" cy="167.12" r="6.77"/><rect class="cls-2" width="103.08" height="118.05" rx="8.31"/><path class="cls-3" d="M8.31,0H94.77a8.31,8.31,0,0,1,8.31,8.31v20a0,0,0,0,1,0,0H0a0,0,0,0,1,0,0v-20A8.31,8.31,0,0,1,8.31,0Z"/><line class="cls-4" y1="28.31" x2="103.08" y2="28.31"/><path d="M10.09,14.92c0-3,1-5.55,5-5.55,3.56,0,4.9,2,4.9,4.26H18.09a2.65,2.65,0,0,0-3-2.71c-2.56,0-3.1,1.78-3.1,4s.54,4,3.1,4c2.12,0,2.88-1.12,3-2.73H20c0,2.39-1.32,4.29-4.9,4.29C11,20.47,10.09,17.89,10.09,14.92Z"/><path d="M21.17,17.81c0-1.6,1.14-2.33,3.61-2.57L27.52,15c-.06-1.25-.51-2-2.26-2s-2.05.64-2.05,1.73H21.44c0-1.79.75-3.18,3.8-3.18,3.55,0,4.06,1.52,4.06,3.86v4.94h-1L27.94,19a4,4,0,0,1-3.41,1.43C22.66,20.47,21.17,19.64,21.17,17.81Zm6.35-1.19v-.27l-2.47.27c-1.51.17-2,.49-2,1.17S23.71,19,25,19A2.28,2.28,0,0,0,27.52,16.62Z"/><path d="M30.84,11.66h1l.43,1.21c.27-.58,1.1-1.32,2.8-1.32h.29v1.61c-.17,0-.34,0-.49,0-1.82,0-2.18,1-2.18,2.41v4.82H30.84Z"/><path d="M37.08,17.86V13.12H35.84V12l1.24-.38V9.49h1.8v2.17h2.27v1.46H38.93v4.74c0,.81.34,1.18,2.22,1.1v1.46C38.28,20.59,37.08,19.91,37.08,17.86Z"/><path d="M33,85.33H30.16v-1.4h7.4v1.4H34.7v8.58H33Z"/><path d="M36.72,91.57c0-1.47,1-2.14,3.32-2.36L42.55,89c0-1.15-.47-1.82-2.07-1.82s-1.89.59-1.89,1.59H37c0-1.65.69-2.93,3.49-2.93,3.26,0,3.73,1.41,3.73,3.56v4.54h-.9l-.35-1.21A3.64,3.64,0,0,1,39.81,94C38.09,94,36.72,93.25,36.72,91.57Zm5.83-1.1v-.25l-2.26.25c-1.39.16-1.85.46-1.85,1.08s.62,1.15,1.79,1.15A2.09,2.09,0,0,0,42.55,90.47Z"/><path d="M47.79,89.77l-3.14-3.85h1.92l2.11,2.9,2.13-2.9h1.88l-3.12,3.85,3.35,4.14h-2l-2.22-3.22-2.23,3.22h-2Z"/><path d="M57.44,83.93H61c3.76,0,4.15,1.91,4.15,3.19,0,2.47-2,3-3.88,3l4.22,3.75H63.17l-4-3.92v3.92H57.44Zm3.66,4.95c2,0,2.31-1,2.31-1.76s-.3-1.79-2.34-1.79H59.15v3.55Z"/><path d="M66,91.57c0-1.47,1-2.14,3.32-2.36L71.84,89c0-1.15-.47-1.82-2.07-1.82s-1.89.59-1.89,1.59H66.26c0-1.65.68-2.93,3.49-2.93,3.26,0,3.73,1.41,3.73,3.56v4.54h-.91l-.34-1.21A3.64,3.64,0,0,1,69.1,94C67.38,94,66,93.25,66,91.57Zm5.83-1.1v-.25l-2.26.25c-1.39.16-1.86.46-1.86,1.08s.63,1.15,1.8,1.15A2.09,2.09,0,0,0,71.84,90.47Z"/><path d="M75.13,91.61V87.26H74v-1l1.14-.34v-2h1.65v2h2.09v1.34h-2v4.35c0,.75.31,1.09,2,1V94C76.23,94.12,75.13,93.5,75.13,91.61Z"/><path d="M79.3,89.9c0-2.14.82-4.09,4-4.09,2.94,0,3.77,2.25,3.57,4.76H81a2,2,0,0,0,2.21,2.17c1.33,0,1.75-.64,1.9-1.28H86.9C86.76,92.81,85.82,94,83.31,94,80.1,94,79.3,92,79.3,89.9Zm5.85-.66s0,0,0,0,0,0,0,0a1.86,1.86,0,0,0-2-2.1c-1.56,0-2,1-2.09,2.13Z"/><circle class="cls-5" cx="102.56" cy="91.3" r="6.77"/><circle class="cls-9" cx="102.56" cy="89.22" r="6.77"/><path d="M30.53,57h1.72c.06,1.47,1,2.2,2.73,2.2,1.6,0,2.4-.48,2.4-1.43s-.55-1.16-2.67-1.59c-2.88-.61-3.88-1.34-3.88-2.86,0-1.9,1.42-2.83,4-2.83s4.11,1.2,4.12,3.5h-1.7c-.08-1.43-.84-2.07-2.48-2.07s-2.23.42-2.23,1.34c0,.77.58,1.09,2.78,1.58,2.85.6,3.77,1.31,3.77,2.85,0,1.87-1.51,3-4,3C32,60.69,30.56,59.49,30.53,57Z"/><path d="M40.49,57V52.6h1.64v4.51c0,1.43.26,2.18,2,2.18s2-.81,2-2.26V52.6h1.69v8h-.92l-.35-1.16c-.29.58-1.13,1.26-2.93,1.26C41,60.69,40.49,59.24,40.49,57Z"/><path d="M50.69,59.43l-.35,1.16h-.9v-11h1.64v4a3,3,0,0,1,2.71-1.08c2.64,0,3.37,1.92,3.37,4.1s-.78,4.1-3.4,4.1C51.86,60.69,51,60,50.69,59.43Zm4.8-2.84c0-1.6-.39-2.7-2.23-2.7s-2.2,1.13-2.2,2.69.39,2.76,2.25,2.76S55.49,58.23,55.49,56.59Z"/><path d="M58.53,58.29V53.94H57.39v-1l1.14-.34v-2h1.65v2h2.09v1.34h-2v4.35c0,.75.31,1.09,2,1v1.34C59.63,60.8,58.53,60.18,58.53,58.29Z"/><path d="M62.67,56.59c0-2.1.83-4.1,4-4.1s4,2,4,4.1-.85,4.1-4,4.1S62.67,58.71,62.67,56.59Zm6.23,0c0-1.48-.38-2.74-2.27-2.74s-2.26,1.25-2.26,2.74.41,2.75,2.25,2.75S68.9,58.14,68.9,56.59Z"/><path d="M71.93,58.29V53.94H70.79v-1l1.14-.34v-2h1.66v2h2.09v1.34H73.63v4.35c0,.75.31,1.09,2.05,1v1.34C73,60.8,71.93,60.18,71.93,58.29Z"/><path d="M76.06,58.25c0-1.47,1-2.14,3.32-2.36l2.52-.25c-.05-1.15-.47-1.82-2.08-1.82s-1.89.59-1.89,1.59H76.31c0-1.65.69-2.93,3.5-2.93,3.26,0,3.72,1.4,3.72,3.56v4.54h-.9l-.34-1.21a3.67,3.67,0,0,1-3.14,1.31C77.44,60.69,76.06,59.93,76.06,58.25Zm5.84-1.1V56.9l-2.27.25c-1.38.16-1.85.46-1.85,1.08s.62,1.15,1.79,1.15A2.09,2.09,0,0,0,81.9,57.15Z"/><path d="M85,49.56h1.67v11H85Z"/><circle class="cls-5" cx="102.56" cy="57.98" r="6.77"/><circle class="cls-10" cx="102.56" cy="55.9" r="6.77"/><rect class="cls-2" x="39.65" y="183.33" width="132.24" height="151.05" rx="8.31"/><path class="cls-3" d="M48,183.33H163.57a8.31,8.31,0,0,1,8.31,8.31v20a0,0,0,0,1,0,0H39.65a0,0,0,0,1,0,0v-20A8.31,8.31,0,0,1,48,183.33Z"/><line class="cls-4" x1="39.65" y1="211.64" x2="171.89" y2="211.64"/><path d="M49.74,198.25c0-3,1-5.55,5-5.55,3.56,0,4.9,2,4.9,4.26H57.73a2.64,2.64,0,0,0-3-2.71c-2.57,0-3.11,1.78-3.11,4s.54,4,3.11,4c2.12,0,2.88-1.12,3-2.73h1.92c0,2.39-1.32,4.29-4.9,4.29C50.69,203.8,49.74,201.22,49.74,198.25Z"/><path d="M61,199.76V195h1.78v4.91c0,1.56.29,2.37,2.15,2.37s2.23-.88,2.23-2.46V195H69v8.69H68l-.38-1.25c-.32.62-1.24,1.37-3.19,1.37C61.6,203.8,61,202.22,61,199.76Z"/><path d="M70.77,195h1l.42,1.21a2.89,2.89,0,0,1,2.8-1.33h.29v1.62c-.17,0-.34,0-.49,0-1.82,0-2.17,1-2.17,2.41v4.82H70.77Z"/><path d="M76.22,195h1l.43,1.21a2.88,2.88,0,0,1,2.8-1.33h.29v1.62c-.17,0-.34,0-.5,0-1.81,0-2.17,1-2.17,2.41v4.82H76.22Z"/><path d="M81,199.32c0-2.32.88-4.45,4.34-4.45,3.21,0,4.11,2.45,3.89,5.18H82.88a2.21,2.21,0,0,0,2.41,2.36c1.44,0,1.9-.7,2.07-1.39h1.9c-.15,1.47-1.17,2.78-3.9,2.78C81.86,203.8,81,201.64,81,199.32Zm6.36-.71s0,0,0,0,0,0,0,0a2,2,0,0,0-2.19-2.29c-1.69,0-2.19,1.06-2.27,2.33Z"/><path d="M90.72,195h1l.41,1.22c.29-.59,1.2-1.34,3.17-1.34,2.85,0,3.41,1.67,3.41,4.13v4.68h-1.8v-4.83c0-1.55-.27-2.47-2.12-2.47s-2.24.9-2.24,2.47v4.83H90.72Z"/><path d="M100.35,201.19v-4.74H99.11v-1.08l1.24-.38v-2.17h1.8V195h2.27v1.46H102.2v4.74c0,.81.34,1.18,2.22,1.1v1.46C101.56,203.92,100.35,203.24,100.35,201.19Z"/><path d="M109.46,198.81v-6h1.88v5.91c0,2.24.51,3.42,2.74,3.42s2.74-1.18,2.74-3.42v-5.91h1.89v6c0,3.55-1.33,5-4.63,5S109.46,202.36,109.46,198.81Z"/><path d="M120,200.59h1.78c0,1.17.8,1.77,2.38,1.77,1.24,0,2.07-.43,2.07-1.11s-1-1-2.49-1.3c-1.87-.36-3.57-.8-3.57-2.43s1.26-2.65,3.8-2.65,3.82,1.07,3.82,3.11h-1.7c-.06-1.19-.73-1.7-2.17-1.7s-1.95.39-1.95,1.09,1,.93,2.41,1.22c2,.39,3.63.73,3.63,2.58,0,1.58-1.53,2.63-3.82,2.63C121.42,203.8,120,202.75,120,200.59Z"/><path d="M129.08,199.32c0-2.32.88-4.45,4.35-4.45,3.2,0,4.1,2.45,3.88,5.18H131a2.2,2.2,0,0,0,2.41,2.36c1.44,0,1.9-.7,2.07-1.39h1.9c-.16,1.47-1.18,2.78-3.91,2.78C130,203.8,129.08,201.64,129.08,199.32Zm6.37-.71s0,0,0,0,0,0,0,0a2,2,0,0,0-2.19-2.29c-1.7,0-2.19,1.06-2.28,2.33Z"/><path d="M138.8,195h1l.42,1.21a2.89,2.89,0,0,1,2.8-1.33h.29v1.62c-.17,0-.34,0-.49,0-1.82,0-2.17,1-2.17,2.41v4.82H138.8Z"/><path d="M61.44,267.25h3.8c3,0,4.56,1.74,4.56,4.93s-1.69,5.05-4.71,5.05H61.44Zm3.34,8.58c2.2,0,3.35-1,3.35-3.66s-1.08-3.51-3.26-3.51H63.14v7.17Z"/><path d="M70.87,267c0-.81.48-1,1.23-1s1.19.2,1.19,1-.47,1-1.19,1S70.87,267.82,70.87,267Zm.39,2.23h1.65v8H71.26Z"/><path d="M74.08,274.4h1.64c0,1.07.73,1.62,2.18,1.62,1.14,0,1.9-.39,1.9-1s-.92-.93-2.29-1.2c-1.71-.32-3.27-.73-3.27-2.23s1.15-2.43,3.49-2.43,3.51,1,3.51,2.85H79.68c-.06-1.09-.67-1.56-2-1.56s-1.79.36-1.79,1,.89.86,2.21,1.13c1.84.36,3.34.67,3.34,2.37,0,1.45-1.4,2.41-3.51,2.41C75.34,277.34,74.08,276.38,74.08,274.4Z"/><path d="M82.36,273.24c0-2.12.85-4.1,3.94-4.1,2.44,0,3.59,1.29,3.59,3.29h-1.7c-.11-1.23-.61-1.93-1.93-1.93-1.72,0-2.2,1.18-2.2,2.73s.47,2.68,2.23,2.68c1.32,0,1.79-.66,1.9-1.81h1.7c0,2-1.11,3.24-3.56,3.24C83.18,277.34,82.36,275.36,82.36,273.24Z"/><path d="M90.79,273.24c0-2.1.83-4.1,4-4.1s4,2,4,4.1-.86,4.1-4,4.1S90.79,275.36,90.79,273.24Zm6.22,0c0-1.48-.37-2.74-2.26-2.74s-2.26,1.25-2.26,2.74S92.9,276,94.74,276,97,274.79,97,273.24Z"/><path d="M99.89,273.63v-4.38h1.64v4.51c0,1.43.27,2.18,2,2.18s2-.81,2-2.26v-4.43h1.69v8h-.92l-.35-1.15c-.29.58-1.13,1.26-2.93,1.26C100.41,277.34,99.89,275.89,99.89,273.63Z"/><path d="M108.84,269.25h.91l.37,1.12c.26-.54,1.11-1.23,2.92-1.23,2.62,0,3.13,1.53,3.13,3.79v4.3h-1.65v-4.44c0-1.42-.25-2.26-2-2.26s-2.06.82-2.06,2.26v4.44h-1.67Z"/><path d="M117.69,274.94v-4.35h-1.13v-1l1.13-.34v-2h1.66v2h2.09v1.34h-2v4.35c0,.75.32,1.09,2,1v1.34C118.8,277.45,117.69,276.83,117.69,274.94Z"/><path d="M126.24,267.25h3.55c3.76,0,4.15,1.92,4.15,3.2,0,2.47-2,3-3.88,3l4.22,3.74H132l-4-3.91v3.91h-1.71Zm3.66,5c2,0,2.31-1,2.31-1.76s-.3-1.79-2.34-1.79H128v3.55Z"/><path d="M134.81,274.9c0-1.47,1-2.14,3.32-2.36l2.51-.25c0-1.15-.47-1.82-2.07-1.82s-1.89.59-1.89,1.59h-1.62c0-1.65.69-2.93,3.49-2.93,3.26,0,3.73,1.4,3.73,3.56v4.53h-.91L141,276a3.63,3.63,0,0,1-3.13,1.31C136.18,277.34,134.81,276.58,134.81,274.9Zm5.83-1.1v-.25l-2.26.25c-1.39.16-1.85.46-1.85,1.08s.62,1.15,1.79,1.15A2.09,2.09,0,0,0,140.64,273.8Z"/><path d="M143.93,274.94v-4.35h-1.14v-1l1.14-.34v-2h1.65v2h2.09v1.34h-2v4.35c0,.75.31,1.09,2,1v1.34C145,277.45,143.93,276.83,143.93,274.94Z"/><path d="M148.11,273.23c0-2.14.81-4.09,4-4.09,2.94,0,3.77,2.25,3.57,4.76h-5.83a2,2,0,0,0,2.21,2.16c1.33,0,1.75-.63,1.9-1.27h1.75c-.14,1.35-1.08,2.55-3.59,2.55C148.9,277.34,148.11,275.36,148.11,273.23Zm5.84-.66s0,0,0,0,0,0,0,0a1.87,1.87,0,0,0-2-2.11c-1.56,0-2,1-2.09,2.14Z"/><circle class="cls-5" cx="171.36" cy="274.63" r="6.77"/><circle class="cls-11" cx="171.36" cy="272.55" r="6.77"/><path d="M73.75,299.53h1.72v10H73.75Z"/><path d="M76.86,306.68h1.63c0,1.07.74,1.62,2.19,1.62,1.13,0,1.9-.39,1.9-1s-.92-.93-2.29-1.2c-1.72-.32-3.28-.73-3.28-2.23s1.16-2.43,3.49-2.43,3.51,1,3.51,2.85H82.45c-.06-1.09-.67-1.56-2-1.56s-1.79.36-1.79,1,.88.86,2.21,1.13c1.84.35,3.34.67,3.34,2.37,0,1.45-1.41,2.41-3.51,2.41C78.12,309.62,76.86,308.66,76.86,306.68Z"/><path d="M89.22,299.53h1.71v8.58h3.79v1.4h-5.5Z"/><path d="M95.08,305.52c0-2.1.82-4.1,4-4.1s4,2,4,4.1-.86,4.1-4,4.1S95.08,307.64,95.08,305.52Zm6.22,0c0-1.48-.38-2.74-2.26-2.74s-2.26,1.24-2.26,2.74.4,2.75,2.24,2.75S101.3,307.07,101.3,305.52Z"/><path d="M103.76,310.06h1.75c.07.92.34,1.48,2.3,1.48s2.17-.56,2.17-1c0-.64-.89-.78-2.09-1-1.82-.31-4-.41-4-1.83,0-.68.55-1.06,1.36-1.26a2.16,2.16,0,0,1-1.2-2c0-1.62.7-2.9,3.91-2.9h3.51v.79l-1.12.33a1.89,1.89,0,0,1,.89,1.79c0,1.66-.66,2.81-3.62,2.81a12.81,12.81,0,0,1-1.39-.11c-.62.08-.67.27-.67.44,0,.37.66.44,2.42.67s3.74.48,3.74,2.17c0,1.18-.82,2.45-3.93,2.45S103.76,311.84,103.76,310.06Zm5.74-5.68c0-.86-.31-1.48-1.89-1.48s-1.87.61-1.87,1.48.33,1.63,1.89,1.63S109.5,305.35,109.5,304.38Z"/><path d="M112.27,310.06H114c.07.92.34,1.48,2.3,1.48s2.17-.56,2.17-1c0-.64-.89-.78-2.09-1-1.82-.31-4-.41-4-1.83,0-.68.55-1.06,1.36-1.26a2.16,2.16,0,0,1-1.2-2c0-1.62.7-2.9,3.91-2.9H120v.79l-1.12.33a1.89,1.89,0,0,1,.89,1.79c0,1.66-.66,2.81-3.62,2.81a12.81,12.81,0,0,1-1.39-.11c-.62.08-.67.27-.67.44,0,.37.66.44,2.42.67s3.74.48,3.74,2.17c0,1.18-.82,2.45-3.93,2.45S112.27,311.84,112.27,310.06Zm5.74-5.68c0-.86-.31-1.48-1.89-1.48s-1.87.61-1.87,1.48.33,1.63,1.89,1.63S118,305.35,118,304.38Z"/><path d="M120.66,305.51c0-2.14.81-4.09,4-4.09,2.95,0,3.77,2.25,3.57,4.76h-5.83a2,2,0,0,0,2.21,2.16c1.33,0,1.75-.64,1.9-1.27h1.75c-.14,1.35-1.08,2.55-3.59,2.55C121.45,309.62,120.66,307.64,120.66,305.51Zm5.84-.66s0,0,0,0,0,0,0,0a1.87,1.87,0,0,0-2-2.11c-1.56,0-2,1-2.09,2.14Z"/><path d="M129.28,305.52c0-2.18.74-4.1,3.39-4.1a3,3,0,0,1,2.72,1.09v-4H137v11h-.91l-.37-1.14c-.28.55-1.17,1.25-3.06,1.25C130.05,309.62,129.28,307.7,129.28,305.52Zm6.12,0c0-1.54-.32-2.7-2.23-2.7s-2.19,1.1-2.19,2.7.37,2.73,2.18,2.73S135.4,307.16,135.4,305.52Z"/><path d="M138.46,304.8H143v1.38h-4.58Z"/><path d="M144.69,299.53h1.72v10h-1.72Z"/><path d="M148.21,301.53h.91l.37,1.12c.27-.54,1.11-1.23,2.92-1.23,2.62,0,3.13,1.53,3.13,3.79v4.3h-1.65v-4.44c0-1.42-.25-2.26-1.95-2.26s-2.06.82-2.06,2.26v4.44h-1.67Z"/><circle class="cls-5" cx="171.36" cy="306.91" r="6.77"/><circle class="cls-12" cx="171.36" cy="304.83" r="6.77"/><path d="M89.56,233.93h6.78v1.41H91.26v2.79H96v1.39H91.26v4.39h-1.7Z"/><path d="M97.1,240.31v-4.38h1.64v4.51c0,1.43.27,2.18,2,2.18s2-.81,2-2.26v-4.43h1.69v8h-.92l-.34-1.15c-.3.58-1.14,1.26-2.94,1.26C97.62,244,97.1,242.57,97.1,240.31Z"/><path d="M106.05,232.89h1.67v11h-1.67Z"/><path d="M109.34,232.89H111v11h-1.67Z"/><path d="M116.4,233.93h2.2l5.15,7.74v-7.74h1.71v10h-2.12l-5.22-7.79v7.79H116.4Z"/><path d="M127,241.58c0-1.47,1-2.14,3.32-2.36l2.51-.25c-.05-1.15-.47-1.82-2.07-1.82s-1.89.59-1.89,1.59h-1.62c0-1.65.68-2.93,3.49-2.93,3.26,0,3.73,1.4,3.73,3.56v4.53h-.91l-.34-1.2a3.63,3.63,0,0,1-3.13,1.31C128.34,244,127,243.26,127,241.58Zm5.83-1.1v-.25l-2.26.25c-1.39.16-1.86.45-1.86,1.08s.63,1.15,1.8,1.15A2.09,2.09,0,0,0,132.8,240.48Z"/><path d="M135.85,235.93h.91l.37,1a2.51,2.51,0,0,1,2.45-1.14,2.12,2.12,0,0,1,2.2,1.23,2.47,2.47,0,0,1,2.48-1.23c2.18,0,2.63,1.53,2.63,3.4v4.69h-1.68v-4.78c0-1.13-.2-1.91-1.48-1.91s-1.51.77-1.51,1.91v4.78h-1.69v-4.78c0-1.13-.2-1.91-1.48-1.91s-1.53.77-1.53,1.91v4.78h-1.67Z"/><path d="M148.11,239.91c0-2.14.81-4.09,4-4.09,2.94,0,3.77,2.25,3.57,4.76h-5.83a2,2,0,0,0,2.21,2.16c1.33,0,1.75-.64,1.9-1.27h1.75c-.14,1.35-1.08,2.55-3.59,2.55C148.9,244,148.11,242,148.11,239.91Zm5.84-.66s0,0,0,0,0,0,0,0a1.87,1.87,0,0,0-2-2.11c-1.56,0-2,1-2.09,2.14Z"/><circle class="cls-5" cx="171.36" cy="241.31" r="6.77"/><circle class="cls-13" cx="171.36" cy="239.23" r="6.77"/></g></g></svg>